<svg width="256" height="260" viewBox="0 0 256 260" fill="none" xmlns="http://www.w3.org/2000/svg">
<path d="M171.254 248.094H176.138V189.6H171.254V248.094Z" fill="#E0E0E0"/>
<path d="M139.154 192.24H208.982C208.982 190.23 208.184 188.303 206.763 186.882C205.341 185.46 203.414 184.662 201.404 184.662H146.732C144.723 184.664 142.796 185.463 141.375 186.883C139.955 188.304 139.156 190.231 139.154 192.24Z" fill="#EBEBEB"/>
<path d="M209.264 192.528H138.872V192.24C138.875 190.156 139.704 188.159 141.178 186.686C142.651 185.212 144.648 184.383 146.732 184.38H201.404C203.488 184.383 205.485 185.212 206.958 186.686C208.432 188.159 209.261 190.156 209.264 192.24V192.528ZM139.442 191.958H208.694C208.62 190.074 207.819 188.291 206.46 186.984C205.102 185.677 203.29 184.946 201.404 184.944H146.732C144.846 184.946 143.034 185.677 141.676 186.984C140.317 188.291 139.516 190.074 139.442 191.958Z" fill="#E0E0E0"/>
<path d="M168.956 192.39C168.956 192.492 170.876 192.57 173.24 192.57C175.604 192.57 177.524 192.492 177.524 192.39C176.103 192.213 174.671 192.152 173.24 192.21C171.81 192.152 170.377 192.213 168.956 192.39Z" fill="#E0E0E0"/>
<path d="M152.342 253.38H153.032C152.985 250.622 153.488 247.882 154.511 245.321C155.534 242.759 157.057 240.427 158.99 238.46C160.924 236.493 163.23 234.931 165.774 233.865C168.318 232.798 171.049 232.249 173.807 232.249C176.565 232.249 179.296 232.798 181.84 233.865C184.384 234.931 186.69 236.493 188.624 238.46C190.557 240.427 192.08 242.759 193.103 245.321C194.126 247.882 194.629 250.622 194.582 253.38H195.272C195.32 250.531 194.8 247.701 193.742 245.055C192.685 242.409 191.112 240 189.114 237.968C187.116 235.937 184.733 234.323 182.105 233.222C179.477 232.12 176.656 231.553 173.807 231.553C170.958 231.553 168.137 232.12 165.509 233.222C162.881 234.323 160.498 235.937 158.501 237.968C156.503 240 154.929 242.409 153.872 245.055C152.814 247.701 152.294 250.531 152.342 253.38Z" fill="#EBEBEB"/>
<path d="M191.708 254.454C191.707 255.092 191.895 255.715 192.248 256.246C192.601 256.776 193.104 257.19 193.693 257.435C194.282 257.68 194.93 257.744 195.555 257.621C196.18 257.497 196.755 257.191 197.206 256.74C197.657 256.29 197.965 255.716 198.09 255.091C198.215 254.466 198.151 253.817 197.907 253.228C197.664 252.639 197.251 252.136 196.721 251.781C196.191 251.427 195.568 251.238 194.93 251.238C194.507 251.237 194.088 251.32 193.698 251.481C193.307 251.642 192.951 251.879 192.652 252.178C192.353 252.477 192.115 252.831 191.953 253.222C191.791 253.612 191.708 254.031 191.708 254.454Z" fill="#E0E0E0"/>
<path d="M149.306 254.01C149.305 254.647 149.493 255.271 149.846 255.802C150.199 256.332 150.702 256.746 151.291 256.991C151.88 257.236 152.528 257.3 153.153 257.177C153.778 257.053 154.353 256.747 154.804 256.296C155.255 255.846 155.563 255.272 155.688 254.647C155.813 254.022 155.749 253.373 155.505 252.784C155.262 252.195 154.849 251.692 154.319 251.337C153.789 250.983 153.166 250.794 152.528 250.794C151.675 250.794 150.856 251.133 150.252 251.736C149.648 252.339 149.308 253.156 149.306 254.01Z" fill="#E0E0E0"/>
<path d="M152.552 248.088C152.552 248.19 161.888 248.268 173.408 248.268C184.928 248.268 194.27 248.19 194.27 248.088C194.27 247.986 184.934 247.908 173.408 247.908C161.882 247.908 152.552 247.98 152.552 248.088Z" fill="#EBEBEB"/>
<path d="M211.034 131.688V174.744C211.038 176.086 210.777 177.416 210.266 178.657C209.755 179.898 209.005 181.026 208.057 181.976C207.11 182.926 205.984 183.68 204.744 184.195C203.505 184.709 202.176 184.974 200.834 184.974H167.624L172.136 131.688C172.135 131.089 172.252 130.497 172.481 129.943C172.709 129.39 173.045 128.887 173.468 128.464C173.891 128.04 174.393 127.704 174.946 127.475C175.499 127.246 176.092 127.128 176.69 127.128H206.474C207.683 127.128 208.843 127.608 209.698 128.464C210.554 129.319 211.034 130.479 211.034 131.688Z" fill="#EBEBEB"/>
<path d="M199.304 184.662C199.324 184.617 199.351 184.574 199.382 184.536L199.622 184.182C199.844 183.882 200.156 183.42 200.534 182.82C201.6 181.109 202.432 179.263 203.006 177.33C203.407 176.003 203.682 174.641 203.828 173.262C203.966 171.666 204.01 170.063 203.96 168.462C203.96 165.072 203.96 161.358 203.96 157.452C203.96 149.652 203.996 142.602 204.008 137.454C204.008 134.922 204.05 132.858 204.068 131.394C204.068 130.704 204.068 130.152 204.098 129.744C204.095 129.553 204.107 129.363 204.134 129.174C204.161 129.363 204.173 129.553 204.17 129.744C204.17 130.152 204.17 130.704 204.2 131.394C204.2 132.858 204.236 134.922 204.254 137.454C204.254 142.602 204.29 149.658 204.308 157.452C204.308 161.358 204.308 165.072 204.308 168.462C204.345 170.064 204.289 171.667 204.14 173.262C203.983 174.657 203.692 176.033 203.27 177.372C202.668 179.316 201.793 181.164 200.672 182.862C200.276 183.462 199.946 183.906 199.706 184.194C199.591 184.365 199.456 184.522 199.304 184.662Z" fill="#E0E0E0"/>
<path d="M181.238 184.686C181.588 184.637 181.941 184.617 182.294 184.626L185.168 184.59C187.568 184.59 190.952 184.59 194.654 184.59C196.508 184.59 198.254 184.59 199.874 184.65C201.308 184.625 202.74 184.782 204.134 185.118C205.076 185.369 205.951 185.826 206.696 186.456C206.899 186.625 207.085 186.811 207.254 187.014C207.374 187.152 207.428 187.224 207.422 187.236C207.416 187.248 207.152 186.966 206.612 186.564C205.857 185.995 204.993 185.587 204.074 185.364C202.694 185.069 201.284 184.942 199.874 184.986L194.654 184.95C190.952 184.95 187.598 184.878 185.174 184.83L182.3 184.758C181.945 184.763 181.59 184.739 181.238 184.686Z" fill="#E0E0E0"/>
<path d="M248.69 160.134H62.9841V166.668H248.69V160.134Z" fill="#E0E0E0"/>
<path d="M72.1581 165.864L53.7921 257.7H56.9001L78.6441 166.668L72.1581 165.864Z" fill="#E0E0E0"/>
<path d="M226.766 165.672L245.126 257.7H242.024L220.274 166.668L226.766 165.672Z" fill="#E0E0E0"/>
<path d="M98.7981 139.98V151.38H96.8961V152.58H98.7981V160.2H134.342V153.258H131.708V151.752H134.342V149.484H135.542V148.452H134.156V139.98H98.7981Z" fill="#F5F5F5"/>
<path d="M124.904 139.98V160.068H134.342V153.132H131.708L131.708 151.752L134.342 151.794V149.532H135.536L135.512 148.362L134.126 148.326V139.95L124.904 139.98Z" fill="#E0E0E0"/>
<path d="M125.576 152.412C125.576 152.478 119.144 152.538 111.212 152.538C103.28 152.538 96.8421 152.478 96.8421 152.412C96.8421 152.346 103.274 152.286 111.212 152.286C119.15 152.286 125.576 152.34 125.576 152.412Z" fill="#E0E0E0"/>
<path d="M125.576 151.254C125.576 151.32 119.144 151.38 111.212 151.38C103.28 151.38 96.8421 151.32 96.8421 151.254C96.8421 151.188 103.274 151.128 111.212 151.128C119.15 151.128 125.576 151.182 125.576 151.254Z" fill="#E0E0E0"/>
<path d="M127.424 148.14C127.424 148.206 120.992 148.266 113.024 148.266C105.056 148.266 98.6601 148.206 98.6601 148.14C98.6601 148.074 105.092 148.014 113.024 148.014C120.956 148.014 127.424 148.068 127.424 148.14Z" fill="#E0E0E0"/>
<path d="M127.598 156.624C127.598 156.696 121.166 156.75 113.234 156.75C105.302 156.75 98.8701 156.696 98.8701 156.624C98.8701 156.552 105.296 156.498 113.234 156.498C121.172 156.498 127.598 156.552 127.598 156.624Z" fill="#E0E0E0"/>
<path d="M59.5641 0.162001H0.260063V53.22H59.5641V0.162001Z" fill="#FAFAFA"/>
<path d="M59.5641 53.22C59.5641 53.22 59.5641 52.878 59.5641 52.236C59.5641 51.594 59.5641 50.628 59.5641 49.392C59.5641 46.902 59.5641 43.26 59.5281 38.592C59.5281 29.322 59.4861 16.074 59.4561 0.131998L59.5941 0.263999H0.290062L0.446063 0.108C0.446063 19.41 0.446063 37.572 0.446063 53.166L0.308061 53.022L43.2021 53.094L55.2981 53.13H59.6121H55.3581L43.2921 53.166L0.308061 53.238H0.164062V53.1C0.164062 37.5 0.164062 19.344 0.164062 0.0419998V0H59.7621V0.18C59.7621 16.158 59.7141 29.43 59.6961 38.724C59.6961 43.35 59.6961 46.98 59.6601 49.464C59.6601 50.664 59.6601 51.636 59.6601 52.278C59.6601 52.92 59.5641 53.22 59.5641 53.22Z" fill="#E0E0E0"/>
<path d="M23.0001 9.588C23.0001 9.672 19.8741 9.744 16.0281 9.744C12.1821 9.744 9.05606 9.672 9.05606 9.588C9.05606 9.504 12.1761 9.426 16.0281 9.426C19.8801 9.426 23.0001 9.498 23.0001 9.588Z" fill="#E0E0E0"/>
<path d="M48.1281 13.572C48.1281 13.656 39.5481 13.728 28.9761 13.728C18.4041 13.728 9.81806 13.656 9.81806 13.572C9.81806 13.488 18.3921 13.41 28.9761 13.41C39.5601 13.41 48.1281 13.482 48.1281 13.572Z" fill="#E0E0E0"/>
<path d="M11.6541 20.322H9.15806V22.818H11.6541V20.322Z" fill="#E0E0E0"/>
<path d="M17.8041 20.322H15.3081V22.818H17.8041V20.322Z" fill="#E0E0E0"/>
<path d="M24.0681 20.208H21.5721V22.704H24.0681V20.208Z" fill="#E0E0E0"/>
<path d="M30.1041 20.322H27.6081V22.818H30.1041V20.322Z" fill="#E0E0E0"/>
<path d="M36.2541 20.322H33.7581V22.818H36.2541V20.322Z" fill="#E0E0E0"/>
<path d="M42.4041 20.322H39.9081V22.818H42.4041V20.322Z" fill="#E0E0E0"/>
<path d="M48.5541 20.322H46.0581V22.818H48.5541V20.322Z" fill="#EBEBEB"/>
<path d="M11.6541 25.632H9.15806V28.128H11.6541V25.632Z" fill="#EBEBEB"/>
<path d="M17.8041 25.632H15.3081V28.128H17.8041V25.632Z" fill="#E0E0E0"/>
<path d="M23.9541 25.632H21.4581V28.128H23.9541V25.632Z" fill="#EBEBEB"/>
<path d="M30.1041 25.632H27.6081V28.128H30.1041V25.632Z" fill="#E0E0E0"/>
<path d="M36.2541 25.632H33.7581V28.128H36.2541V25.632Z" fill="#E0E0E0"/>
<path d="M42.5181 25.518H40.0221V28.014H42.5181V25.518Z" fill="#E0E0E0"/>
<path d="M48.5541 25.632H46.0581V28.128H48.5541V25.632Z" fill="#E0E0E0"/>
<path d="M11.6541 30.942H9.15806V33.438H11.6541V30.942Z" fill="#E0E0E0"/>
<path d="M17.9181 30.828H15.4221V33.324H17.9181V30.828Z" fill="#E0E0E0"/>
<path d="M23.9541 30.942H21.4581V33.438H23.9541V30.942Z" fill="#E0E0E0"/>
<path d="M30.1041 30.942H27.6081V33.438H30.1041V30.942Z" fill="#EBEBEB"/>
<path d="M36.2541 30.942H33.7581V33.438H36.2541V30.942Z" fill="#E0E0E0"/>
<path d="M42.4041 30.942H39.9081V33.438H42.4041V30.942Z" fill="#E0E0E0"/>
<path d="M48.5541 30.942H46.0581V33.438H48.5541V30.942Z" fill="#E0E0E0"/>
<path d="M11.6541 36.252H9.15806V38.748H11.6541V36.252Z" fill="#E0E0E0"/>
<path d="M17.8041 36.252H15.3081V38.748H17.8041V36.252Z" fill="#E0E0E0"/>
<path d="M23.9541 36.252H21.4581V38.748H23.9541V36.252Z" fill="#E0E0E0"/>
<path d="M30.2181 36.144H27.7221V38.64H30.2181V36.144Z" fill="#E0E0E0"/>
<path d="M36.2541 36.252H33.7581V38.748H36.2541V36.252Z" fill="#E0E0E0"/>
<path d="M42.4041 36.252H39.9081V38.748H42.4041V36.252Z" fill="#EBEBEB"/>
<path d="M48.5541 36.252H46.0581V38.748H48.5541V36.252Z" fill="#E0E0E0"/>
<path d="M11.6541 41.568H9.15806V44.064H11.6541V41.568Z" fill="#E0E0E0"/>
<path d="M17.8041 41.568H15.3081V44.064H17.8041V41.568Z" fill="#EBEBEB"/>
<path d="M23.9541 41.568H21.4581V44.064H23.9541V41.568Z" fill="#E0E0E0"/>
<path d="M30.1041 41.568H27.6081V44.064H30.1041V41.568Z" fill="#E0E0E0"/>
<path d="M36.2541 41.568H33.7581V44.064H36.2541V41.568Z" fill="#E0E0E0"/>
<path d="M42.5181 41.454H40.0221V43.95H42.5181V41.454Z" fill="#E0E0E0"/>
<path d="M48.5541 41.568H46.0581V44.064H48.5541V41.568Z" fill="#E0E0E0"/>
<path d="M247.454 7.086H218.264V14.808H247.454V7.086Z" fill="#EBEBEB"/>
<path d="M235.112 22.938C235.107 22.8922 235.107 22.8458 235.112 22.8V22.38C235.112 22.014 235.112 21.51 235.112 20.862C235.112 19.53 235.112 17.61 235.064 15.192L235.154 15.282L205.964 15.342C206.03 15.276 205.814 15.492 206.108 15.192V22.938L205.964 22.794L226.766 22.86L232.904 22.902H235.154H232.97L226.802 23.022L205.898 23.088H205.802V15.222C206.096 14.928 205.886 15.144 205.952 15.078L235.142 15.132H235.202V15.222C235.202 17.664 235.166 19.596 235.154 20.946C235.154 21.588 235.154 22.086 235.154 22.446C235.154 22.602 235.154 22.722 235.154 22.824C235.143 22.8631 235.129 22.9012 235.112 22.938Z" fill="#E0E0E0"/>
<path d="M118.004 196.608H88.8141V204.33H118.004V196.608Z" fill="#EBEBEB"/>
<path d="M105.662 212.466C105.658 212.418 105.658 212.37 105.662 212.322V211.926C105.662 211.566 105.662 211.056 105.662 210.408C105.662 209.076 105.632 207.156 105.614 204.744L105.704 204.834L76.5141 204.888L76.6581 204.744V212.454L76.5141 212.31L97.3161 212.376L103.454 212.418H105.704H103.52L97.4181 212.46L76.5141 212.526H76.3641V204.78L76.5141 204.63L105.704 204.69H105.794V204.78C105.794 207.216 105.758 209.154 105.746 210.498C105.746 211.14 105.746 211.638 105.746 211.998C105.746 212.154 105.746 212.28 105.746 212.376C105.72 212.408 105.692 212.438 105.662 212.466Z" fill="#E0E0E0"/>
<path d="M247.166 115.104C247.161 115.058 247.161 115.012 247.166 114.966V114.57C247.166 114.204 247.166 113.7 247.166 113.052C247.166 111.714 247.136 109.8 247.118 107.382L247.208 107.472L218.018 107.532C218.084 107.466 217.868 107.682 218.162 107.382V115.098L218.012 114.954L238.82 115.02L244.958 115.062H247.208C247.162 115.068 247.116 115.068 247.07 115.062H245.024L238.922 115.104L218.012 115.17H217.802V107.388C218.096 107.094 217.886 107.31 217.952 107.244L247.142 107.298H247.232V107.388C247.232 109.83 247.19 111.762 247.178 113.112C247.178 113.748 247.178 114.252 247.178 114.612V114.99C247.177 115.028 247.173 115.066 247.166 115.104Z" fill="#E0E0E0"/>
<path d="M251.12 107.382C251.12 107.382 251.12 107.328 251.12 107.238C251.12 107.148 251.12 106.992 251.12 106.83C251.12 106.446 251.12 105.93 251.09 105.282C251.09 103.926 251.06 102.012 251.036 99.66L251.138 99.768L233.6 99.81L233.75 99.66V103.632C233.75 104.928 233.75 106.176 233.75 107.376L233.606 107.238L246.152 107.304L249.806 107.34H251.144C251.038 107.349 250.932 107.349 250.826 107.34H249.872L246.272 107.382L233.63 107.448H233.492V107.304C233.492 106.104 233.492 104.856 233.492 103.56C233.492 102.918 233.492 102.258 233.492 101.598V99.588L233.642 99.438L251.18 99.48H251.288V99.588C251.288 101.988 251.246 103.902 251.234 105.27C251.234 105.912 251.234 106.422 251.204 106.794C251.197 106.992 251.168 107.189 251.12 107.382Z" fill="#E0E0E0"/>
<path d="M29.8101 107.514C29.8048 107.468 29.8048 107.422 29.8101 107.376V106.98C29.8101 106.614 29.8101 106.11 29.8101 105.456C29.8101 104.124 29.8101 102.21 29.7561 99.792L29.8461 99.882L0.662061 99.942C0.722061 99.876 0.512062 100.086 0.806062 99.792V103.704C0.806062 104.996 0.806062 106.262 0.806062 107.502L0.662061 107.358L21.4641 107.424L27.6081 107.466H29.8581C29.8122 107.471 29.7659 107.471 29.7201 107.466H29.3061L27.6021 107.58H21.5181L0.602062 107.658H0.458061V103.716C0.458061 103.074 0.458061 102.42 0.458061 101.766V99.78C0.758061 99.48 0.542063 99.696 0.614063 99.63L29.7981 99.69H29.8941V99.78C29.8941 102.222 29.8521 104.154 29.8401 105.498C29.8401 106.14 29.8401 106.638 29.8401 106.998V107.382C29.8341 107.427 29.8241 107.471 29.8101 107.514Z" fill="#E0E0E0"/>
<path d="M33.7641 99.78C33.7641 99.78 33.7641 99.726 33.7641 99.63C33.7641 99.534 33.7641 99.39 33.7641 99.222C33.7641 98.844 33.7641 98.328 33.7641 97.674C33.7641 96.324 33.7281 94.41 33.7041 92.058L33.8121 92.166L16.2021 92.22C16.0701 92.352 16.3821 92.034 16.3521 92.07V94.068C16.3521 94.734 16.3521 95.388 16.3521 96.036V99.78L16.2081 99.636L28.8021 99.72L32.4021 99.78H33.7401C33.6342 99.7886 33.5279 99.7886 33.4221 99.78H32.4681L16.2021 99.936H16.0821V99.78C16.0821 98.58 16.0821 97.326 16.0821 96.036V92.07L16.2321 91.92L33.7701 91.962H33.8781V92.07C33.8781 94.47 33.8361 96.384 33.8181 97.752C33.8181 98.394 33.8181 98.904 33.8181 99.276C33.8108 99.445 33.7927 99.6133 33.7641 99.78Z" fill="#E0E0E0"/>
<path d="M255.836 257.7C255.836 257.784 200.924 257.856 133.208 257.856C65.4921 257.856 10.5681 257.784 10.5681 257.7C10.5681 257.616 65.4681 257.544 133.208 257.544C200.948 257.544 255.836 257.616 255.836 257.7Z" fill="#263238"/>
<path d="M198.02 47.808H99.674V122.298H198.02V47.808Z" fill="#F5F5F5"/>
<path d="M198.002 122.298C198.002 122.298 198.002 121.824 198.002 120.93C198.002 120.036 198.002 118.704 198.002 116.97C198.002 113.496 198.002 108.408 197.966 101.91C197.966 88.926 197.93 70.32 197.9 47.808L198.032 47.934H99.6921L99.8481 47.778C99.8481 74.574 99.8481 99.942 99.8481 122.268L99.7101 122.124L190.856 122.232H198.056H190.934L99.7281 122.34H99.5841V122.202C99.5841 99.876 99.5841 74.508 99.5841 47.712V47.556H198.218V47.688C198.188 70.23 198.17 88.866 198.152 101.868C198.152 108.354 198.152 113.436 198.116 116.868V120.81C198.002 121.848 198.002 122.298 198.002 122.298Z" fill="#263238"/>
<path d="M135.326 82.698H128.684V100.662H135.326V82.698Z" fill="#FF725E"/>
<path d="M163.508 82.698H156.866V100.662H163.508V82.698Z" fill="#FF725E"/>
<path d="M172.904 72.15H166.262V100.662H172.904V72.15Z" fill="#FF725E"/>
<path d="M126.734 95.01H120.092V101.052H126.734V95.01Z" fill="#FF725E"/>
<path d="M144.722 90.81H138.08V100.662H144.722V90.81Z" fill="#FF725E"/>
<path d="M154.118 88.548H147.476V100.662H154.118V88.548Z" fill="#FF725E"/>
<path d="M124.946 77.31C125.735 77.31 126.374 76.6707 126.374 75.882C126.374 75.0933 125.735 74.454 124.946 74.454C124.157 74.454 123.518 75.0933 123.518 75.882C123.518 76.6707 124.157 77.31 124.946 77.31Z" fill="#FF725E"/>
<path d="M146.96 51.474C147.044 51.474 147.116 58.032 147.116 66.12C147.116 74.208 147.044 80.766 146.96 80.766C146.876 80.766 146.804 74.208 146.804 66.12C146.804 58.032 146.87 51.474 146.96 51.474Z" fill="#263238"/>
<path d="M191.084 62.178C190.742 62.2231 190.397 62.2432 190.052 62.238L187.226 62.286C184.826 62.316 181.544 62.334 177.908 62.334H172.778C172.402 62.3121 172.024 62.3241 171.65 62.37C171.312 62.4303 170.992 62.5656 170.714 62.766C170.203 63.1297 169.851 63.675 169.73 64.29C169.69 64.5641 169.674 64.8411 169.682 65.118C169.682 65.388 169.682 65.64 169.682 65.88C169.682 66.336 169.682 66.744 169.682 67.08C169.691 67.4271 169.671 67.7743 169.622 68.118C169.577 67.7739 169.557 67.427 169.562 67.08C169.562 66.732 169.562 66.324 169.562 65.88C169.562 65.64 169.562 65.388 169.562 65.118C169.536 64.8306 169.536 64.5414 169.562 64.254C169.677 63.5726 170.054 62.9632 170.612 62.556C170.919 62.3279 171.274 62.172 171.65 62.1C172.048 62.0448 172.449 62.0267 172.85 62.046H177.98C181.616 62.046 184.91 62.046 187.298 62.088L190.124 62.142C190.445 62.1289 190.765 62.1409 191.084 62.178Z" fill="#263238"/>
<path d="M177.956 70.782C177.901 70.7731 177.847 70.759 177.794 70.74L177.332 70.578C177.128 70.506 176.882 70.404 176.576 70.308L175.532 70.008C172.744 69.3018 169.834 69.2202 167.011 69.7689C164.188 70.3175 161.521 71.483 159.2 73.182C157.618 74.4403 156.159 75.8467 154.844 77.382C153.404 78.912 151.844 80.568 149.75 81.522C148.717 81.9929 147.591 82.2267 146.456 82.206C145.362 82.1646 144.282 81.9373 143.264 81.534C141.388 80.72 139.607 79.7018 137.954 78.498C136.445 77.4712 134.837 76.5988 133.154 75.894C131.675 75.3023 130.082 75.0481 128.492 75.15C126.182 75.2795 123.929 75.9144 121.892 77.01C121.34 77.3083 120.809 77.643 120.302 78.012L119.906 78.312C119.864 78.3482 119.818 78.3785 119.768 78.402C120.387 77.8128 121.081 77.3083 121.832 76.902C123.875 75.7518 126.152 75.0771 128.492 74.928C130.114 74.8081 131.743 75.0563 133.256 75.654C134.972 76.3501 136.611 77.2228 138.146 78.258C139.787 79.444 141.551 80.4498 143.408 81.258C144.396 81.6479 145.443 81.869 146.504 81.912C147.592 81.9249 148.669 81.6997 149.66 81.252C151.682 80.334 153.218 78.714 154.652 77.184C155.985 75.6363 157.462 74.218 159.062 72.948C161.881 70.9005 165.195 69.6432 168.662 69.306C170.989 69.0806 173.338 69.284 175.592 69.906L176.636 70.236C176.936 70.338 177.182 70.452 177.386 70.53L177.836 70.722C177.908 70.752 177.962 70.776 177.956 70.782Z" fill="#FF725E"/>
<path d="M146.96 83.172C147.749 83.172 148.388 82.5327 148.388 81.744C148.388 80.9553 147.749 80.316 146.96 80.316C146.171 80.316 145.532 80.9553 145.532 81.744C145.532 82.5327 146.171 83.172 146.96 83.172Z" fill="#FF725E"/>
<path d="M169.754 70.74C170.543 70.74 171.182 70.1007 171.182 69.312C171.182 68.5233 170.543 67.884 169.754 67.884C168.965 67.884 168.326 68.5233 168.326 69.312C168.326 70.1007 168.965 70.74 169.754 70.74Z" fill="#FF725E"/>
<path d="M126.734 103.41C125.624 103.568 124.5 103.62 123.38 103.566C122.262 103.62 121.141 103.568 120.032 103.41C121.141 103.256 122.262 103.204 123.38 103.254C124.5 103.204 125.623 103.256 126.734 103.41Z" fill="#263238"/>
<path d="M135.452 103.41C134.341 103.568 133.218 103.62 132.098 103.566C130.978 103.62 129.855 103.568 128.744 103.41C129.855 103.256 130.978 103.204 132.098 103.254C133.218 103.204 134.341 103.256 135.452 103.41Z" fill="#263238"/>
<path d="M145.166 103.41C144.055 103.568 142.932 103.62 141.812 103.566C140.692 103.62 139.569 103.568 138.458 103.41C139.569 103.256 140.692 103.204 141.812 103.254C142.932 103.204 144.055 103.256 145.166 103.41Z" fill="#263238"/>
<path d="M154.43 103.41C152.199 103.618 149.953 103.618 147.722 103.41C149.953 103.202 152.199 103.202 154.43 103.41Z" fill="#263238"/>
<path d="M163.46 103.41C161.229 103.618 158.983 103.618 156.752 103.41C158.983 103.202 161.229 103.202 163.46 103.41Z" fill="#263238"/>
<path d="M172.496 103.41C170.265 103.618 168.019 103.618 165.788 103.41C168.019 103.202 170.265 103.202 172.496 103.41Z" fill="#263238"/>
<path d="M120.674 109.074H119.75V108.522H122.276V109.074H121.346V111.426H120.674V109.074Z" fill="#263238"/>
<path d="M124.49 111.426L123.932 110.616H123.332V111.426H122.642V108.522H123.896C124.67 108.522 125.156 108.924 125.156 109.578C125.164 109.775 125.111 109.969 125.003 110.133C124.896 110.298 124.739 110.425 124.556 110.496L125.204 111.426H124.49ZM123.89 109.074H123.344V110.082H123.89C124.298 110.082 124.49 109.89 124.49 109.578C124.49 109.266 124.268 109.074 123.86 109.074H123.89Z" fill="#263238"/>
<path d="M127.94 110.886V111.426H125.69V108.522H127.886V109.062H126.356V109.692H127.706V110.214H126.356V110.886H127.94Z" fill="#263238"/>
<path d="M131.138 108.522V111.426H130.586L129.14 109.662V111.426H128.474V108.522H129.032L130.472 110.286V108.522H131.138Z" fill="#263238"/>
<path d="M131.828 108.522H133.148C133.35 108.504 133.553 108.528 133.745 108.592C133.937 108.657 134.114 108.761 134.263 108.897C134.413 109.034 134.532 109.2 134.614 109.386C134.696 109.571 134.738 109.771 134.738 109.974C134.738 110.177 134.696 110.377 134.614 110.562C134.532 110.748 134.413 110.914 134.263 111.051C134.114 111.187 133.937 111.291 133.745 111.356C133.553 111.42 133.35 111.444 133.148 111.426H131.828V108.522ZM133.112 110.874C133.351 110.874 133.58 110.779 133.748 110.61C133.917 110.442 134.012 110.213 134.012 109.974C134.012 109.735 133.917 109.506 133.748 109.338C133.58 109.169 133.351 109.074 133.112 109.074H132.512V110.874H133.112Z" fill="#263238"/>
<path d="M123.872 75.564C123.764 75.5912 123.653 75.6034 123.542 75.6H122.594L119.108 75.654H110.882C110.335 75.6771 109.787 75.653 109.244 75.582C108.677 75.4767 108.133 75.2737 107.636 74.982C106.648 74.4131 105.896 73.5113 105.512 72.438C105.326 71.9326 105.228 71.3987 105.224 70.86V69.366C105.224 67.428 105.224 65.676 105.26 64.194C105.296 62.712 105.296 61.572 105.308 60.708C105.308 60.324 105.308 60.012 105.338 59.76C105.335 59.6492 105.345 59.5385 105.368 59.43C105.385 59.5394 105.385 59.6506 105.368 59.76C105.368 60.012 105.368 60.324 105.398 60.708C105.398 61.572 105.398 62.754 105.452 64.194C105.506 65.634 105.452 67.428 105.452 69.366C105.482 70.338 105.356 71.37 105.74 72.33C106.098 73.3411 106.804 74.1918 107.732 74.73C108.199 74.996 108.709 75.1787 109.238 75.27C109.763 75.3393 110.293 75.3634 110.822 75.342H113.876L119.048 75.378L122.534 75.426L123.482 75.456C123.615 75.4791 123.746 75.5153 123.872 75.564Z" fill="#263238"/>
<path d="M190.712 50.034V94.248H237.758V50.034H190.712Z" fill="#FAFAFA"/>
<path d="M190.712 50.034L194.072 50.034L203.63 49.998L237.758 49.932H237.896V50.07C237.896 63 237.896 78.15 237.896 94.278V94.38H190.556V94.248C190.586 80.952 190.61 69.882 190.628 62.136C190.628 58.284 190.628 55.254 190.664 53.178C190.664 52.158 190.664 51.378 190.664 50.832C190.664 50.286 190.664 50.034 190.664 50.034C190.664 50.034 190.664 50.322 190.664 50.862C190.664 51.402 190.664 52.2 190.664 53.262C190.664 55.344 190.664 58.386 190.7 62.262C190.7 69.99 190.736 81.03 190.766 94.29L190.634 94.158H237.68L237.524 94.314C237.524 78.186 237.524 63.036 237.524 50.106L237.662 50.244L203.624 50.172H190.826L190.712 50.034Z" fill="#263238"/>
<path d="M214.022 55.044C211.15 55.044 208.343 55.8956 205.955 57.4911C203.567 59.0865 201.706 61.3543 200.607 64.0074C199.508 66.6606 199.221 69.5801 199.781 72.3967C200.341 75.2133 201.724 77.8005 203.755 79.8312C205.786 81.8619 208.373 83.2448 211.189 83.805C214.006 84.3653 216.925 84.0777 219.579 82.9787C222.232 81.8797 224.5 80.0187 226.095 77.6309C227.691 75.2431 228.542 72.4358 228.542 69.564C228.542 65.7131 227.012 62.0198 224.289 59.2968C221.566 56.5738 217.873 55.044 214.022 55.044ZM214.244 78.258C212.481 78.258 210.757 77.7351 209.291 76.7554C207.824 75.7757 206.682 74.3832 206.007 72.754C205.332 71.1248 205.155 69.3321 205.499 67.6026C205.843 65.873 206.693 64.2844 207.94 63.0374C209.186 61.7905 210.775 60.9413 212.505 60.5973C214.234 60.2533 216.027 60.4299 217.656 61.1047C219.285 61.7795 220.678 62.9223 221.657 64.3885C222.637 65.8548 223.16 67.5786 223.16 69.342C223.16 71.7067 222.221 73.9745 220.549 75.6466C218.877 77.3186 216.609 78.258 214.244 78.258Z" fill="#FF725E"/>
<path d="M205.328 69.342C205.327 67.6206 205.825 65.9357 206.761 64.4909C207.697 63.0461 209.031 61.9032 210.602 61.2L208.37 56.184C205.739 57.2944 203.494 59.156 201.916 61.5359C200.337 63.9158 199.496 66.7083 199.496 69.564C199.496 69.768 199.496 69.972 199.496 70.164H205.334C205.33 69.908 205.328 69.634 205.328 69.342Z" fill="#E0E0E0"/>
<path d="M226.034 87.744C226.034 87.816 220.634 87.876 214.034 87.876C207.434 87.876 202.034 87.816 202.034 87.744C202.034 87.672 207.434 87.606 214.034 87.606C220.634 87.606 226.034 87.666 226.034 87.744Z" fill="#263238"/>
<path d="M220.688 89.946C220.688 90.024 217.688 90.084 214.022 90.084C210.356 90.084 207.362 90.024 207.362 89.946C207.362 89.868 210.362 89.808 214.022 89.808C217.682 89.808 220.688 89.868 220.688 89.946Z" fill="#263238"/>
<path d="M213.002 67.464V68.064L211.802 70.818H210.77L211.898 68.22H211.016V68.736H210.212V67.47L213.002 67.464Z" fill="#263238"/>
<path d="M215.828 69.732C215.828 70.332 215.378 70.878 214.37 70.878C213.916 70.8867 213.468 70.7727 213.074 70.548L213.41 69.834C213.687 70.0126 214.01 70.1083 214.34 70.11C214.658 70.11 214.874 69.984 214.874 69.756C214.874 69.528 214.736 69.42 214.226 69.42H213.32L213.482 67.464H215.618V68.196H214.268L214.226 68.682H214.448C215.438 68.682 215.828 69.144 215.828 69.732Z" fill="#263238"/>
<path d="M216.002 68.346C216.016 68.1801 216.078 68.0218 216.18 67.8905C216.283 67.7592 216.421 67.6605 216.579 67.6065C216.736 67.5524 216.906 67.5454 217.067 67.5862C217.229 67.627 217.375 67.7138 217.488 67.8362C217.601 67.9586 217.675 68.1112 217.703 68.2753C217.731 68.4395 217.71 68.6082 217.644 68.7608C217.577 68.9135 217.468 69.0434 217.328 69.1349C217.189 69.2264 217.027 69.2754 216.86 69.276C216.741 69.2783 216.622 69.2552 216.512 69.2083C216.402 69.1614 216.303 69.0917 216.222 69.0038C216.141 68.9159 216.08 68.8119 216.042 68.6985C216.004 68.5851 215.99 68.465 216.002 68.346ZM218.84 67.464H219.524L217.202 70.812H216.542L218.84 67.464ZM217.142 68.346C217.142 68.01 217.022 67.878 216.86 67.878C216.698 67.878 216.578 68.01 216.578 68.346C216.578 68.682 216.704 68.82 216.86 68.82C217.016 68.82 217.13 68.688 217.13 68.346H217.142ZM218.342 69.924C218.329 69.8056 218.342 69.6859 218.379 69.5728C218.416 69.4597 218.477 69.3559 218.558 69.2683C218.639 69.1808 218.737 69.1115 218.847 69.0653C218.957 69.019 219.075 68.9967 219.194 69C219.381 68.9843 219.568 69.0253 219.731 69.1178C219.894 69.2102 220.025 69.3498 220.107 69.5181C220.19 69.6864 220.219 69.8757 220.192 70.0611C220.165 70.2465 220.083 70.4194 219.956 70.5571C219.829 70.6949 219.663 70.7911 219.48 70.8331C219.298 70.8751 219.107 70.8609 218.932 70.7925C218.758 70.724 218.608 70.6045 218.503 70.4495C218.398 70.2945 218.342 70.1114 218.342 69.924ZM219.476 69.924C219.476 69.588 219.356 69.45 219.194 69.45C219.032 69.45 218.912 69.588 218.912 69.924C218.912 70.26 219.038 70.398 219.194 70.398C219.35 70.398 219.488 70.266 219.488 69.924H219.476Z" fill="#263238"/>
<path d="M131.474 1.29V51.318H184.712V1.29H131.474Z" fill="#FAFAFA"/>
<path d="M131.474 1.29L135.284 1.29L146.084 1.254L184.694 1.188H184.832V1.326C184.832 15.954 184.832 33.126 184.832 51.348V51.504H131.306V51.366C131.306 36.318 131.354 23.796 131.372 15.03C131.372 10.668 131.402 7.23 131.408 4.896C131.408 3.738 131.408 2.85 131.408 2.238C131.408 1.626 131.408 1.338 131.408 1.338C131.408 1.338 131.408 1.656 131.408 2.268C131.408 2.88 131.408 3.78 131.408 4.95C131.408 7.302 131.408 10.74 131.444 15.114C131.444 23.862 131.486 36.354 131.51 51.366L131.378 51.234H184.616L184.46 51.39C184.46 33.138 184.46 15.99 184.46 1.368L184.598 1.5L135.338 1.344H131.474V1.29Z" fill="#263238"/>
<path d="M157.856 6.96C154.607 6.96 151.43 7.92364 148.729 9.72904C146.027 11.5344 143.921 14.1005 142.678 17.1027C141.435 20.1048 141.11 23.4083 141.744 26.5952C142.379 29.782 143.944 32.7092 146.242 35.0065C148.54 37.3037 151.468 38.8679 154.655 39.5011C157.842 40.1343 161.145 39.8081 164.147 38.5638C167.149 37.3195 169.714 35.2129 171.518 32.5105C173.323 29.8082 174.285 26.6314 174.284 23.382C174.284 21.2249 173.859 19.089 173.033 17.0962C172.208 15.1034 170.998 13.2928 169.472 11.7678C167.946 10.2428 166.135 9.03326 164.142 8.20833C162.149 7.3834 160.013 6.95921 157.856 6.96ZM158.102 33.228C156.106 33.228 154.155 32.6361 152.495 31.5272C150.836 30.4183 149.542 28.8421 148.778 26.998C148.014 25.154 147.815 23.1248 148.204 21.1672C148.593 19.2095 149.555 17.4113 150.966 15.9999C152.377 14.5885 154.176 13.6273 156.133 13.2379C158.091 12.8485 160.12 13.0484 161.964 13.8122C163.808 14.576 165.384 15.8696 166.493 17.5292C167.602 19.1888 168.194 21.14 168.194 23.136C168.194 25.8126 167.131 28.3795 165.238 30.2721C163.346 32.1647 160.779 33.228 158.102 33.228Z" fill="#E0E0E0"/>
<path d="M158.108 6.966V13.044C159.694 13.0467 161.257 13.4231 162.67 14.1427C164.084 14.8624 165.308 15.905 166.243 17.186C167.178 18.467 167.798 19.9504 168.052 21.5158C168.307 23.0813 168.189 24.6847 167.708 26.196L173.66 27.81C174.341 25.3898 174.456 22.8455 173.997 20.3736C173.538 17.9017 172.517 15.5684 171.013 13.5539C169.509 11.5394 167.562 9.89759 165.322 8.75531C163.082 7.61303 160.61 7.00083 158.096 6.966H158.108Z" fill="#E0E0E0"/>
<path d="M148.016 23.136C148.016 21.1838 148.583 19.2737 149.649 17.6377C150.714 16.0017 152.231 14.7102 154.016 13.92L151.484 8.244C148.509 9.50196 145.97 11.6086 144.185 14.3009C142.399 16.9931 141.447 20.1516 141.446 23.382C141.446 23.616 141.446 23.844 141.446 24.072H148.046C148.028 23.766 148.016 23.454 148.016 23.136Z" fill="#455A64"/>
<path d="M158.102 33.228C157.396 33.2239 156.692 33.1475 156.002 33C155.744 34.464 155.264 37.302 154.892 39.534C158.925 40.2834 163.093 39.4956 166.574 37.3257C170.056 35.1558 172.599 31.7611 173.702 27.81L167.75 26.196C167.098 28.2415 165.811 30.026 164.077 31.2905C162.342 32.555 160.249 33.2337 158.102 33.228Z" fill="#EBEBEB"/>
<path d="M171.452 43.98C171.452 44.064 165.362 44.136 157.856 44.136C150.35 44.136 144.266 44.064 144.266 43.98C144.266 43.896 150.35 43.824 157.856 43.824C165.362 43.824 171.452 43.866 171.452 43.98Z" fill="#263238"/>
<path d="M165.398 46.452C165.398 46.536 162.02 46.608 157.856 46.608C153.692 46.608 150.32 46.536 150.32 46.452C150.32 46.368 153.692 46.296 157.856 46.296C162.02 46.296 165.398 46.38 165.398 46.452Z" fill="#263238"/>
<path d="M156.734 23.646C156.734 24.246 156.284 24.762 155.276 24.762C154.821 24.7692 154.371 24.6553 153.974 24.432L154.322 23.718C154.597 23.8974 154.918 23.9932 155.246 23.994C155.57 23.994 155.78 23.874 155.78 23.646C155.78 23.418 155.63 23.322 155.264 23.322H154.868V22.722L155.468 22.08H154.148V21.348H156.548V21.948L155.858 22.692C156.097 22.713 156.319 22.8225 156.481 22.999C156.643 23.1756 156.733 23.4063 156.734 23.646Z" fill="#263238"/>
<path d="M159.602 23.616C159.602 24.216 159.152 24.762 158.144 24.762C157.69 24.7713 157.242 24.6573 156.848 24.432L157.184 23.718C157.461 23.8972 157.784 23.993 158.114 23.994C158.432 23.994 158.648 23.868 158.648 23.64C158.648 23.412 158.51 23.304 158 23.304H157.088L157.256 21.348H159.386V22.08H158.042L158 22.566H158.222C159.23 22.566 159.602 23.028 159.602 23.616Z" fill="#263238"/>
<path d="M159.782 22.23C159.796 22.0641 159.858 21.9058 159.96 21.7745C160.063 21.6432 160.201 21.5445 160.359 21.4905C160.516 21.4364 160.686 21.4294 160.847 21.4702C161.009 21.511 161.155 21.5978 161.268 21.7202C161.381 21.8426 161.455 21.9952 161.483 22.1593C161.511 22.3235 161.49 22.4922 161.424 22.6448C161.357 22.7975 161.248 22.9275 161.108 23.0189C160.969 23.1104 160.807 23.1594 160.64 23.16C160.521 23.1623 160.402 23.1392 160.292 23.0923C160.182 23.0454 160.083 22.9757 160.002 22.8878C159.921 22.7999 159.859 22.6959 159.822 22.5825C159.784 22.4691 159.77 22.349 159.782 22.23ZM162.602 21.348H163.292L161.006 24.696H160.322L162.602 21.348ZM160.91 22.23C160.91 21.894 160.79 21.756 160.628 21.756C160.466 21.756 160.346 21.894 160.346 22.23C160.346 22.566 160.472 22.704 160.628 22.704C160.784 22.704 160.922 22.572 160.922 22.23H160.91ZM162.11 23.808C162.097 23.6896 162.11 23.5699 162.147 23.4568C162.184 23.3437 162.245 23.2399 162.326 23.1523C162.407 23.0648 162.505 22.9956 162.615 22.9493C162.725 22.903 162.843 22.8807 162.962 22.884C163.149 22.8683 163.336 22.9093 163.499 23.0018C163.662 23.0942 163.793 23.2338 163.875 23.4021C163.958 23.5704 163.987 23.7597 163.96 23.9451C163.933 24.1305 163.851 24.3034 163.724 24.4412C163.597 24.5789 163.431 24.6751 163.248 24.7171C163.066 24.7591 162.875 24.7449 162.7 24.6765C162.526 24.608 162.376 24.4885 162.271 24.3335C162.166 24.1786 162.11 23.9954 162.11 23.808ZM163.244 23.808C163.244 23.472 163.118 23.334 162.962 23.334C162.806 23.334 162.68 23.472 162.68 23.808C162.68 24.144 162.806 24.282 162.962 24.282C163.118 24.282 163.28 24.18 163.28 23.808H163.244Z" fill="#263238"/>
<path d="M72.3441 15.15V59.364H119.396V15.15H72.3441Z" fill="#FAFAFA"/>
<path d="M73.2021 15.18H85.2741L119.402 15.012H119.54V15.18C119.54 28.104 119.54 43.26 119.54 59.388V59.544H72.2241V59.412C72.2541 46.11 72.2781 35.046 72.2961 27.294C72.2961 23.442 72.2961 20.412 72.3261 18.342C72.3261 17.316 72.3261 16.542 72.3261 15.99C72.3261 15.438 72.3261 15.198 72.3261 15.198C72.3261 15.198 72.3261 15.48 72.3261 16.02C72.3261 16.56 72.3261 17.364 72.3261 18.42C72.3261 20.502 72.3261 23.538 72.3621 27.42C72.3621 35.154 72.4041 46.188 72.4341 59.454L72.2961 59.316H119.342L119.186 59.472C119.186 43.344 119.186 28.188 119.186 15.264L119.318 15.396L85.2801 15.33L75.6801 15.294L73.2021 15.18Z" fill="#263238"/>
<path d="M95.6601 20.16C92.7878 20.1588 89.9796 21.0095 87.5909 22.6046C85.2022 24.1996 83.3402 26.4672 82.2405 29.1207C81.1407 31.7741 80.8527 34.6941 81.4128 37.5112C81.9728 40.3284 83.3558 42.9162 85.3869 44.9472C87.4179 46.9782 90.0057 48.3612 92.8228 48.9213C95.64 49.4814 98.56 49.1933 101.213 48.0936C103.867 46.9939 106.134 45.1319 107.729 42.7431C109.325 40.3544 110.175 37.5463 110.174 34.674C110.174 30.8246 108.645 27.133 105.923 24.4111C103.201 21.6891 99.5094 20.16 95.6601 20.16ZM95.8821 43.38C94.1186 43.38 92.3948 42.8571 90.9286 41.8774C89.4624 40.8977 88.3196 39.5052 87.6447 37.876C86.9699 36.2468 86.7933 34.4541 87.1374 32.7246C87.4814 30.995 88.3306 29.4064 89.5775 28.1594C90.8244 26.9125 92.4131 26.0633 94.1426 25.7193C95.8722 25.3753 97.6649 25.5519 99.2941 26.2267C100.923 26.9015 102.316 28.0443 103.295 29.5105C104.275 30.9768 104.798 32.7006 104.798 34.464C104.798 35.6349 104.567 36.7943 104.119 37.876C103.671 38.9577 103.015 39.9406 102.187 40.7686C101.359 41.5965 100.376 42.2532 99.2941 42.7013C98.2123 43.1494 97.0529 43.38 95.8821 43.38Z" fill="#E0E0E0"/>
<path d="M95.8821 20.166V25.566C97.2838 25.5623 98.6666 25.8895 99.9181 26.5208C101.17 27.1521 102.255 28.0697 103.085 29.1992C103.915 30.3287 104.467 31.6381 104.696 33.021C104.925 34.4039 104.824 35.8213 104.402 37.158L109.664 38.586C110.261 36.4472 110.359 34.1999 109.951 32.0172C109.543 29.8345 108.64 27.7743 107.311 25.9953C105.983 24.2162 104.263 22.7656 102.286 21.755C100.309 20.7445 98.1263 20.2009 95.9061 20.166H95.8821Z" fill="#FF725E"/>
<path d="M86.9601 34.458C86.9607 32.7346 87.4602 31.0482 88.3982 29.6023C89.3361 28.1565 90.6725 27.013 92.2461 26.31L90.0021 21.3C87.3727 22.4103 85.129 24.2712 83.5517 26.65C81.9744 29.0288 81.1334 31.8198 81.1341 34.674C81.1341 34.878 81.1341 35.082 81.1341 35.274H87.0021C87.0021 35.01 86.9601 34.734 86.9601 34.458Z" fill="#EBEBEB"/>
<path d="M95.8821 43.38C95.2466 43.3794 94.613 43.311 93.9921 43.176C93.7701 44.472 93.3441 46.98 93.0141 48.954C93.8869 49.1154 94.7725 49.1977 95.6601 49.2C98.8296 49.1966 101.911 48.157 104.435 46.2397C106.959 44.3224 108.787 41.6326 109.64 38.58L104.402 37.158C103.828 38.9662 102.692 40.5443 101.16 41.6632C99.6281 42.7821 97.7792 43.3835 95.8821 43.38Z" fill="#FF725E"/>
<path d="M95.8821 43.38C95.2466 43.3794 94.613 43.311 93.9921 43.176C93.7701 44.472 93.3441 46.98 93.0141 48.954C93.8869 49.1154 94.7725 49.1977 95.6601 49.2C98.8296 49.1966 101.911 48.157 104.435 46.2397C106.959 44.3224 108.787 41.6326 109.64 38.58L104.402 37.158C103.828 38.9662 102.692 40.5443 101.16 41.6632C99.6281 42.7821 97.7792 43.3835 95.8821 43.38Z" fill="black"/>
<path d="M107.672 52.854C107.672 52.932 102.272 52.992 95.6721 52.992C89.0721 52.992 83.6721 52.932 83.6721 52.854C83.6721 52.776 89.0721 52.716 95.6721 52.716C102.272 52.716 107.672 52.776 107.672 52.854Z" fill="#263238"/>
<path d="M102.32 55.062C102.32 55.134 99.3201 55.2 95.6601 55.2C92.0001 55.2 89.0001 55.134 89.0001 55.062C89.0001 54.99 92.0001 54.924 95.6601 54.924C99.3201 54.924 102.32 54.984 102.32 55.062Z" fill="#263238"/>
<path d="M93.9201 34.854C93.9127 35.0165 93.8723 35.1759 93.8014 35.3224C93.7305 35.4688 93.6306 35.5993 93.5077 35.706C93.3848 35.8126 93.2415 35.8931 93.0865 35.9426C92.9315 35.9921 92.768 36.0096 92.6061 35.994C92.3902 36.0082 92.1738 35.9744 91.9725 35.895C91.7713 35.8156 91.5901 35.6926 91.4421 35.5348C91.2941 35.3771 91.1828 35.1884 91.1164 34.9825C91.05 34.7766 91.0301 34.5585 91.058 34.344C91.0391 34.1028 91.0727 33.8604 91.1564 33.6334C91.2402 33.4064 91.3721 33.2002 91.5432 33.0292C91.7143 32.8581 91.9204 32.7261 92.1474 32.6424C92.3744 32.5586 92.6169 32.525 92.8581 32.544C93.2029 32.53 93.5444 32.6154 93.8421 32.79L93.5001 33.468C93.3222 33.3508 93.113 33.2902 92.9001 33.294C92.7926 33.2867 92.6848 33.3013 92.5832 33.337C92.4816 33.3728 92.3883 33.4289 92.3091 33.5019C92.2299 33.5749 92.1665 33.6633 92.1226 33.7616C92.0788 33.86 92.0554 33.9663 92.0541 34.074C92.267 33.9015 92.5363 33.8138 92.8101 33.828C93.0929 33.8182 93.3682 33.9205 93.5761 34.1127C93.784 34.3048 93.9076 34.5712 93.9201 34.854ZM93.0021 34.896C93.0032 34.8374 92.9919 34.7792 92.9689 34.7253C92.9459 34.6714 92.9117 34.623 92.8686 34.5833C92.8255 34.5436 92.7745 34.5135 92.7189 34.495C92.6633 34.4765 92.6044 34.47 92.5461 34.476C92.4863 34.4689 92.4257 34.4745 92.3682 34.4925C92.3108 34.5105 92.2578 34.5405 92.2128 34.5804C92.1677 34.6204 92.1317 34.6695 92.107 34.7244C92.0823 34.7793 92.0696 34.8388 92.0696 34.899C92.0696 34.9592 92.0823 35.0187 92.107 35.0736C92.1317 35.1285 92.1677 35.1776 92.2128 35.2176C92.2578 35.2575 92.3108 35.2875 92.3682 35.3055C92.4257 35.3235 92.4863 35.3291 92.5461 35.322C92.6049 35.328 92.6643 35.3214 92.7203 35.3025C92.7764 35.2837 92.8277 35.253 92.8709 35.2127C92.9141 35.1723 92.9482 35.1232 92.9708 35.0686C92.9934 35.0139 93.0041 34.9551 93.0021 34.896Z" fill="#263238"/>
<path d="M94.1541 34.254C94.1541 33.15 94.7541 32.514 95.6361 32.514C96.5181 32.514 97.1061 33.15 97.1061 34.254C97.1061 35.358 96.5061 35.994 95.6361 35.994C94.7661 35.994 94.1541 35.358 94.1541 34.254ZM96.1521 34.254C96.1521 33.552 95.9361 33.288 95.6361 33.288C95.3361 33.288 95.1081 33.552 95.1081 34.254C95.1081 34.956 95.3301 35.22 95.6361 35.22C95.9421 35.22 96.1521 34.98 96.1521 34.254Z" fill="#263238"/>
<path d="M97.3701 33.468C97.3806 33.3008 97.4399 33.1403 97.5406 33.0063C97.6413 32.8724 97.7791 32.7709 97.9368 32.7143C98.0946 32.6578 98.2654 32.6487 98.4283 32.6881C98.5912 32.7276 98.7389 32.8138 98.8533 32.9363C98.9677 33.0587 99.0438 33.212 99.0721 33.3772C99.1003 33.5424 99.0796 33.7122 99.0125 33.8658C98.9454 34.0193 98.8347 34.1498 98.6943 34.2412C98.5538 34.3326 98.3896 34.3808 98.2221 34.38C98.1044 34.3821 97.9876 34.3595 97.8793 34.3136C97.771 34.2677 97.6735 34.1996 97.5931 34.1136C97.5128 34.0276 97.4515 33.9257 97.413 33.8145C97.3746 33.7033 97.36 33.5852 97.3701 33.468ZM100.202 32.58H100.892L98.6061 35.928H97.9221L100.202 32.58ZM98.5101 33.468C98.5101 33.126 98.3901 32.994 98.2221 32.994C98.0541 32.994 97.9461 33.126 97.9461 33.468C97.9461 33.81 98.0721 33.942 98.2221 33.942C98.3721 33.942 98.5101 33.78 98.5101 33.468ZM99.7101 35.046C99.7229 34.8797 99.7839 34.7208 99.8856 34.5886C99.9874 34.4565 100.125 34.3568 100.283 34.3019C100.44 34.247 100.61 34.2391 100.772 34.2793C100.934 34.3195 101.081 34.406 101.194 34.5282C101.308 34.6504 101.383 34.803 101.411 34.9674C101.439 35.1318 101.419 35.3008 101.353 35.4538C101.286 35.6068 101.176 35.7371 101.037 35.8287C100.898 35.9204 100.735 35.9695 100.568 35.97C100.45 35.9706 100.334 35.9464 100.226 35.8991C100.118 35.8517 100.022 35.7822 99.9423 35.6951C99.8631 35.6079 99.8031 35.5051 99.7662 35.3933C99.7293 35.2815 99.7163 35.1632 99.7281 35.046H99.7101ZM100.85 35.046C100.85 34.704 100.724 34.572 100.568 34.572C100.412 34.572 100.286 34.704 100.286 35.046C100.286 35.388 100.412 35.514 100.568 35.514C100.724 35.514 100.868 35.382 100.868 35.046H100.85Z" fill="#263238"/>
<path d="M237.782 224.1H197.786V229.596H237.782V224.1Z" fill="#263238"/>
<path d="M237.848 229.662H197.72V224.028H237.848V229.662ZM197.858 229.524H237.71V224.166H197.858V229.524Z" fill="#263238"/>
<path d="M201.494 227.766L207.254 256.164H228.554L234.116 229.596L201.494 227.766Z" fill="#263238"/>
<path d="M201.494 253.476L204.566 257.7H230.456L234.116 253.476H201.494Z" fill="#455A64"/>
<path d="M216.284 228.594C216.206 228.594 216.104 215.436 216.056 199.194C216.008 182.952 216.056 169.794 216.116 169.794C216.176 169.794 216.296 182.946 216.344 199.194C216.392 215.442 216.362 228.594 216.284 228.594Z" fill="#263238"/>
<path d="M225.194 195.666C225.169 195.771 225.132 195.874 225.086 195.972C224.99 196.2 224.87 196.476 224.726 196.824L224.468 197.424L224.198 198.174L223.892 199.032C223.784 199.332 223.7 199.668 223.598 200.004C223.121 201.613 222.747 203.25 222.476 204.906C222.171 206.934 221.971 208.977 221.876 211.026C221.73 214.757 221.836 218.493 222.194 222.21C222.32 223.638 222.452 224.796 222.548 225.594C222.584 225.966 222.62 226.272 222.644 226.512C222.66 226.619 222.66 226.729 222.644 226.836C222.606 226.734 222.581 226.627 222.572 226.518C222.53 226.278 222.482 225.978 222.416 225.606C222.29 224.814 222.128 223.662 221.972 222.234C221.556 218.509 221.423 214.759 221.576 211.014C221.676 208.952 221.89 206.897 222.218 204.858C222.503 203.196 222.904 201.556 223.418 199.95C223.526 199.608 223.616 199.272 223.73 198.972C223.844 198.672 223.958 198.372 224.06 198.114C224.162 197.856 224.264 197.604 224.354 197.376C224.444 197.148 224.552 196.95 224.636 196.776L225.044 195.942C225.083 195.845 225.134 195.752 225.194 195.666Z" fill="#263238"/>
<path d="M224.168 185.028C224.138 185.175 224.096 185.32 224.042 185.46L223.628 186.66C223.532 186.924 223.43 187.224 223.322 187.542L222.998 188.604C222.764 189.366 222.494 190.23 222.254 191.202C222.122 191.688 221.99 192.198 221.852 192.726C221.714 193.254 221.606 193.812 221.474 194.388C221.198 195.534 220.994 196.788 220.736 198.078C220.298 200.688 219.908 203.58 219.638 206.628C219.368 209.676 219.278 212.592 219.236 215.238C219.194 217.884 219.266 220.278 219.374 222.282C219.41 223.284 219.47 224.19 219.524 224.988C219.578 225.786 219.62 226.464 219.668 227.028C219.716 227.592 219.746 227.994 219.77 228.312C219.785 228.464 219.785 228.616 219.77 228.768C219.77 228.768 219.74 228.612 219.698 228.318C219.656 228.024 219.614 227.574 219.548 227.034C219.482 226.494 219.416 225.792 219.356 225C219.296 224.208 219.206 223.296 219.158 222.294C219.026 220.29 218.972 217.896 218.966 215.238C218.96 212.58 219.092 209.658 219.344 206.604C219.596 203.55 220.01 200.652 220.466 198.03C220.73 196.728 220.94 195.48 221.234 194.334C221.366 193.764 221.498 193.206 221.624 192.672C221.75 192.138 221.912 191.634 222.044 191.148C222.302 190.176 222.584 189.312 222.836 188.556C222.956 188.178 223.07 187.824 223.178 187.5C223.286 187.176 223.406 186.9 223.508 186.624C223.708 186.12 223.864 185.72 223.976 185.424C224.029 185.287 224.093 185.155 224.168 185.028Z" fill="#263238"/>
<path d="M213.752 230.922C213.746 230.87 213.746 230.818 213.752 230.766C213.752 230.65 213.74 230.5 213.716 230.316C213.716 229.896 213.65 229.314 213.596 228.57C213.5 227.04 213.368 224.856 213.2 222.162C212.852 216.762 212.348 209.28 211.436 201.06C210.974 196.95 210.434 193.044 209.87 189.51C209.576 187.74 209.306 186.06 209 184.494C208.694 182.928 208.4 181.494 208.136 180.15C207.872 178.806 207.578 177.63 207.344 176.58C207.11 175.53 206.888 174.63 206.696 173.892C206.504 173.154 206.384 172.608 206.282 172.2C206.24 172.02 206.21 171.87 206.18 171.756C206.174 171.704 206.174 171.652 206.18 171.6C206.205 171.647 206.224 171.698 206.234 171.75L206.366 172.182C206.474 172.59 206.63 173.154 206.828 173.868C207.026 174.582 207.272 175.494 207.518 176.544C207.764 177.594 208.076 178.776 208.352 180.108C208.628 181.44 208.952 182.886 209.252 184.452C209.552 186.018 209.852 187.698 210.158 189.462C210.758 193.008 211.28 196.914 211.748 201.03C212.654 209.256 213.128 216.738 213.422 222.15C213.572 224.862 213.674 227.052 213.734 228.564C213.734 229.308 213.782 229.89 213.8 230.31V230.766C213.791 230.82 213.775 230.872 213.752 230.922Z" fill="#263238"/>
<path d="M215.954 176.148C215.78 174.282 213.896 172.878 212.024 172.86C211.087 172.902 210.173 173.156 209.349 173.603C208.524 174.05 207.812 174.678 207.266 175.44C206.187 176.978 205.41 178.707 204.974 180.534C203.714 184.92 203.024 189.534 203.564 194.076C204.104 198.618 205.964 203.076 209.198 206.28C209.726 206.802 210.398 207.324 211.136 207.168C211.528 207.052 211.881 206.835 212.162 206.538C215.351 203.62 217.878 200.055 219.576 196.08C221.273 192.105 222.1 187.813 222.002 183.492C221.954 181.77 221.726 179.97 220.772 178.536C219.818 177.102 217.586 175.572 215.972 176.136" fill="#FF725E"/>
<path d="M201.98 161.22L199.34 166.02C199.28 166.134 199.196 166.26 199.07 166.272C198.944 166.284 198.83 166.152 198.752 166.032L191.786 155.334L193.388 154.428L201.98 161.22Z" fill="#FF725E"/>
<path d="M201.98 161.22L199.34 166.02C199.28 166.134 199.196 166.26 199.07 166.272C198.944 166.284 198.83 166.152 198.752 166.032L191.786 155.334L193.388 154.428L201.98 161.22Z" fill="black"/>
<path d="M216.116 169.824L192.338 155.79C192.098 155.646 191.834 155.478 191.738 155.19C191.642 154.902 191.906 154.5 192.158 154.236C193.793 152.54 195.775 151.216 197.968 150.354C200.161 149.493 202.514 149.114 204.866 149.244C207.217 149.413 209.492 150.152 211.494 151.397C213.496 152.642 215.165 154.356 216.356 156.39C218.648 160.488 218.726 165.912 216.092 169.806" fill="#FF725E"/>
<path d="M195.764 151.314C195.866 151.286 195.971 151.272 196.076 151.272C196.28 151.272 196.586 151.224 196.976 151.23C198.082 151.214 199.187 151.303 200.276 151.494C203.902 152.106 207.278 153.742 210.004 156.21C212.731 158.677 214.696 161.873 215.666 165.42C215.966 166.485 216.167 167.576 216.266 168.678C216.292 168.907 216.304 169.137 216.302 169.368C216.281 169.553 216.22 169.731 216.122 169.89C216.191 169.494 216.204 169.09 216.158 168.69C216.017 167.604 215.793 166.531 215.486 165.48C214.29 161.473 211.856 157.948 208.533 155.41C205.21 152.871 201.168 151.45 196.988 151.35C196.202 151.326 195.77 151.338 195.764 151.314Z" fill="#263238"/>
<path d="M212.9 160.14C212.522 160.366 212.119 160.55 211.7 160.686C210.944 160.98 209.9 161.364 208.7 161.742C207.5 162.12 206.432 162.414 205.64 162.612C205.219 162.743 204.784 162.825 204.344 162.858C204.741 162.667 205.158 162.518 205.586 162.414L208.616 161.472L211.616 160.494C212.03 160.33 212.461 160.211 212.9 160.14Z" fill="#263238"/>
<path d="M209.156 150.078C209.364 150.946 209.459 151.838 209.438 152.73C209.507 153.621 209.457 154.517 209.288 155.394C209.171 154.515 209.125 153.628 209.15 152.742C209.078 151.855 209.08 150.964 209.156 150.078Z" fill="#263238"/>
<path d="M192.134 155.526C192.689 155.275 193.265 155.075 193.856 154.926C194.942 154.59 196.442 154.17 198.122 153.762C199.802 153.354 201.332 153.048 202.442 152.856C203.034 152.723 203.636 152.64 204.242 152.61C203.654 152.802 203.052 152.95 202.442 153.054C201.338 153.3 199.82 153.654 198.146 154.044C196.472 154.434 194.966 154.836 193.874 155.118C193.304 155.292 192.722 155.429 192.134 155.526Z" fill="#263238"/>
<path d="M206.09 172.104C204.044 170.55 201.89 170.244 199.316 170.346C196.749 170.518 194.236 171.167 191.906 172.26C187.892 174.018 184.106 176.604 181.706 180.27C179.306 183.936 178.478 188.784 180.272 192.774C180.407 193.193 180.697 193.545 181.082 193.758C181.528 193.889 182.005 193.852 182.426 193.656C186.986 192.168 191.576 190.656 195.77 188.34C199.964 186.024 203.78 182.772 206.03 178.536C206.609 177.535 206.976 176.426 207.11 175.278C207.173 174.705 207.112 174.125 206.932 173.578C206.752 173.03 206.457 172.528 206.066 172.104" fill="#FF725E"/>
<path d="M206.126 171.624C206.023 171.678 205.914 171.723 205.802 171.756L204.842 172.086L204.152 172.314C203.9 172.404 203.636 172.518 203.342 172.632C202.742 172.866 202.094 173.094 201.392 173.436L200.276 173.946C199.886 174.126 199.496 174.348 199.076 174.546C198.248 174.948 197.414 175.47 196.526 175.992C192.703 178.364 189.302 181.357 186.464 184.848C185.828 185.664 185.21 186.426 184.7 187.194C184.442 187.572 184.172 187.932 183.944 188.292L183.296 189.336C182.87 189.99 182.552 190.626 182.246 191.166C182.096 191.442 181.952 191.694 181.832 191.928L181.514 192.588C181.328 192.96 181.184 193.26 181.064 193.494C181.021 193.604 180.962 193.707 180.89 193.8C180.924 193.687 180.966 193.577 181.016 193.47L181.412 192.54L181.712 191.868C181.826 191.628 181.964 191.37 182.108 191.094C182.396 190.542 182.708 189.894 183.122 189.234L183.758 188.172C183.986 187.806 184.25 187.446 184.502 187.056C185.006 186.282 185.624 185.508 186.26 184.656C187.684 182.901 189.247 181.264 190.934 179.76C192.644 178.282 194.468 176.939 196.388 175.746C197.288 175.224 198.134 174.708 198.968 174.312C199.382 174.102 199.772 173.886 200.168 173.712L201.302 173.22C202.016 172.884 202.694 172.662 203.276 172.446C203.57 172.338 203.84 172.236 204.098 172.152L204.8 171.942L205.772 171.666C205.888 171.638 206.007 171.624 206.126 171.624Z" fill="#263238"/>
<path d="M190.148 180.27C188.522 180.899 186.861 181.436 185.174 181.878C183.516 182.406 181.829 182.841 180.122 183.18C181.75 182.557 183.411 182.023 185.096 181.578C186.756 181.054 188.442 180.618 190.148 180.27Z" fill="#263238"/>
<path d="M189.944 191.25C189.862 190.738 189.826 190.22 189.836 189.702C189.836 188.742 189.806 187.416 189.836 185.958C189.866 184.5 189.956 183.168 190.034 182.214C190.046 181.695 190.112 181.178 190.232 180.672C190.272 181.189 190.272 181.709 190.232 182.226C190.196 183.276 190.16 184.554 190.112 185.964C190.064 187.374 190.046 188.652 190.022 189.702C190.041 190.219 190.015 190.737 189.944 191.25Z" fill="#263238"/>
<path d="M199.352 186.462C199.274 186.462 199.022 183.774 198.794 180.462C198.566 177.15 198.44 174.432 198.518 174.426C198.596 174.42 198.848 177.114 199.076 180.426C199.304 183.738 199.43 186.456 199.352 186.462Z" fill="#263238"/>
<path d="M187.646 174.18C188.175 174.115 188.71 174.099 189.242 174.132C190.22 174.132 191.582 174.168 193.076 174.216C194.57 174.264 195.932 174.33 196.916 174.384C197.448 174.387 197.978 174.439 198.5 174.54C197.972 174.602 197.44 174.618 196.91 174.588C195.926 174.588 194.57 174.552 193.07 174.504C191.57 174.456 190.214 174.39 189.23 174.33C188.698 174.332 188.168 174.282 187.646 174.18Z" fill="#263238"/>
<path d="M210.218 206.91C210.191 206.806 210.179 206.699 210.182 206.592C210.182 206.352 210.182 206.046 210.14 205.674C210.104 204.882 210.098 203.73 210.14 202.308C210.182 200.886 210.26 199.194 210.434 197.322C210.608 195.45 210.884 193.392 211.268 191.256C211.652 189.12 212.138 187.104 212.624 185.256C213.11 183.408 213.632 181.818 214.106 180.456C214.58 179.094 214.994 178.056 215.306 177.306C215.456 176.958 215.576 176.706 215.666 176.46C215.706 176.36 215.754 176.264 215.81 176.172C215.797 176.278 215.766 176.382 215.72 176.478C215.642 176.706 215.54 176.994 215.408 177.342C215.126 178.086 214.742 179.172 214.298 180.522C213.854 181.872 213.362 183.492 212.876 185.322C212.39 187.152 211.94 189.15 211.55 191.28C211.16 193.41 210.89 195.48 210.692 197.322C210.494 199.164 210.392 200.874 210.338 202.29C210.284 203.706 210.26 204.858 210.266 205.65C210.266 206.022 210.266 206.322 210.266 206.562C210.262 206.679 210.246 206.796 210.218 206.91Z" fill="#263238"/>
<path d="M211.472 191.34C211.193 191.718 210.875 192.066 210.524 192.378C209.924 192.978 209.036 193.818 208.04 194.694C207.044 195.57 206.108 196.326 205.418 196.854C205.064 197.163 204.678 197.432 204.266 197.658C204.577 197.307 204.921 196.985 205.292 196.698L207.848 194.478L210.386 192.234C210.717 191.9 211.081 191.601 211.472 191.34Z" fill="#263238"/>
<path d="M219.002 197.4C218.629 196.962 218.292 196.494 217.994 196.002L215.642 192.576C214.73 191.286 213.908 190.116 213.242 189.18C212.889 188.725 212.569 188.246 212.282 187.746C212.695 188.149 213.07 188.589 213.404 189.06C214.064 189.894 214.946 191.076 215.876 192.414C216.806 193.752 217.604 194.982 218.162 195.894C218.488 196.369 218.769 196.873 219.002 197.4Z" fill="#263238"/>
<path d="M215.054 178.338C215.096 178.404 212.594 180.084 209.468 182.094C206.342 184.104 203.774 185.694 203.732 185.616C203.69 185.538 206.192 183.864 209.318 181.854C212.444 179.844 215.012 178.272 215.054 178.338Z" fill="#263238"/>
<path d="M222.104 185.946C220.783 184.848 219.521 183.681 218.324 182.448C217.056 181.284 215.854 180.05 214.724 178.752C216.047 179.847 217.308 181.012 218.504 182.244C219.773 183.409 220.975 184.645 222.104 185.946Z" fill="#263238"/>
<path d="M223.874 185.79L226.022 185.616C227.546 185.488 229.025 185.036 230.36 184.29C231.009 183.906 231.682 183.565 232.376 183.27C235.028 182.208 237.992 182.4 240.848 182.256C245.523 182.017 250.102 180.846 254.318 178.812C254.569 178.702 254.779 178.515 254.918 178.278C255.362 177.474 254.54 176.76 253.838 176.322C250.238 174.096 246.542 171.84 242.438 170.736C238.334 169.632 233.684 169.818 230.186 172.224C226.082 175.05 224.582 180.852 223.886 185.79" fill="#FF725E"/>
<path d="M254.954 178.014L254.594 177.846L253.574 177.312C252.692 176.844 251.42 176.16 249.818 175.392C247.95 174.475 246.004 173.724 244.004 173.148C241.555 172.45 238.991 172.246 236.462 172.548C233.93 172.829 231.539 173.857 229.592 175.5C228.062 176.911 226.837 178.62 225.992 180.522C225.406 181.798 224.885 183.104 224.432 184.434C224.276 184.884 224.15 185.244 224.048 185.52C224.013 185.65 223.963 185.775 223.898 185.892C223.919 185.76 223.951 185.629 223.994 185.502C224.078 185.22 224.192 184.86 224.33 184.404C224.741 183.053 225.234 181.729 225.806 180.438C226.636 178.494 227.862 176.745 229.406 175.302C231.382 173.612 233.819 172.553 236.402 172.26C238.967 171.953 241.567 172.169 244.046 172.896C246.059 173.486 248.014 174.261 249.884 175.212C251.48 176.004 252.74 176.718 253.604 177.216L254.594 177.816C254.722 177.867 254.842 177.934 254.954 178.014Z" fill="#263238"/>
<path d="M249.8 180.78C249.758 180.846 246.95 179.034 243.53 176.724C240.11 174.414 237.38 172.524 237.422 172.434C237.464 172.344 240.272 174.186 243.692 176.49C247.112 178.794 249.848 180.714 249.8 180.78Z" fill="#263238"/>
<path d="M246.806 172.29C246.148 172.513 245.46 172.636 244.766 172.656C244.074 172.764 243.37 172.764 242.678 172.656C243.36 172.535 244.05 172.465 244.742 172.446C245.425 172.338 246.115 172.286 246.806 172.29Z" fill="#263238"/>
<path d="M234.518 170.688C234.292 171.213 233.982 171.697 233.6 172.122C233.281 172.622 232.886 173.069 232.43 173.448C232.663 172.926 232.975 172.442 233.354 172.014C233.674 171.517 234.066 171.07 234.518 170.688Z" fill="#263238"/>
<path d="M237.032 182.436C236.559 182.237 236.107 181.991 235.682 181.704C234.872 181.212 233.78 180.504 232.604 179.64C231.428 178.776 230.402 177.984 229.664 177.396C229.245 177.1 228.853 176.767 228.494 176.4C228.951 176.634 229.383 176.913 229.784 177.234L232.784 179.412C233.954 180.258 235.022 181.002 235.784 181.536C236.226 181.799 236.643 182.1 237.032 182.436Z" fill="#263238"/>
<path d="M227.036 194.91C224.99 194.37 222.548 196.362 222.128 198.438C221.708 200.514 222.482 202.638 223.394 204.546C225.345 208.829 228.239 212.616 231.86 215.622C235.514 218.622 240.075 220.299 244.802 220.38C243.938 216.36 245.036 212.16 244.55 208.074C244.125 204.481 242.495 201.139 239.925 198.592C237.355 196.045 233.998 194.445 230.402 194.052C229.094 193.908 227.582 193.704 227.06 194.91" fill="#FF725E"/>
<path d="M244.802 220.38C244.703 220.341 244.607 220.295 244.514 220.242C244.245 220.092 243.988 219.922 243.746 219.732C242.889 218.983 242.2 218.06 241.724 217.026C241.4 216.39 241.034 215.706 240.68 214.944L239.576 212.508C239.181 211.613 238.73 210.743 238.226 209.904C237.669 209.014 237.046 208.167 236.36 207.372C234.962 205.728 233.456 204.3 232.16 202.944C230.981 201.755 229.907 200.466 228.95 199.092C228.311 198.158 227.785 197.151 227.384 196.092C227.252 195.714 227.156 195.42 227.108 195.21C227.075 195.109 227.053 195.004 227.042 194.898C227.072 194.898 227.186 195.318 227.486 196.05C227.92 197.081 228.468 198.061 229.118 198.972C230.087 200.319 231.167 201.584 232.346 202.752C233.654 204.096 235.166 205.518 236.582 207.18C237.277 207.987 237.907 208.847 238.466 209.754C238.974 210.604 239.427 211.486 239.822 212.394L240.896 214.836C241.244 215.598 241.598 216.288 241.91 216.93C242.359 217.952 243.01 218.872 243.824 219.636C244.418 220.164 244.802 220.38 244.802 220.38Z" fill="#263238"/>
<path d="M234.218 217.044C234.231 216.579 234.293 216.116 234.404 215.664C234.566 214.824 234.83 213.666 235.184 212.406C235.538 211.146 235.922 210.006 236.222 209.214C236.362 208.771 236.549 208.345 236.78 207.942C236.703 208.399 236.58 208.847 236.414 209.28C236.162 210.102 235.814 211.23 235.46 212.484C235.106 213.738 234.812 214.884 234.602 215.712C234.517 216.167 234.388 216.613 234.218 217.044Z" fill="#263238"/>
<path d="M244.418 207.18C243.927 207.109 243.444 206.997 242.972 206.844C242.09 206.616 240.872 206.298 239.516 205.992C238.16 205.686 236.93 205.452 236.03 205.284C235.541 205.213 235.058 205.107 234.584 204.966C235.081 204.95 235.578 204.99 236.066 205.086C236.972 205.2 238.22 205.41 239.582 205.716C240.944 206.022 242.162 206.37 243.032 206.652C243.512 206.778 243.976 206.955 244.418 207.18Z" fill="#263238"/>
<path d="M226.622 210.042C226.645 209.506 226.72 208.974 226.844 208.452C227.024 207.474 227.312 206.13 227.69 204.66C228.068 203.19 228.482 201.882 228.806 200.94C228.957 200.422 229.158 199.919 229.406 199.44C229.322 199.97 229.192 200.492 229.016 201C228.746 201.954 228.368 203.268 227.984 204.732C227.6 206.196 227.288 207.528 227.06 208.494C226.957 209.021 226.81 209.539 226.622 210.042Z" fill="#263238"/>
<path d="M239.72 198.576C237.812 198.518 235.907 198.364 234.014 198.114C232.109 197.961 230.212 197.713 228.332 197.37C228.332 197.292 230.9 197.502 234.044 197.832C237.188 198.162 239.726 198.498 239.72 198.576Z" fill="#263238"/>
<path d="M237.848 229.572C237.848 229.65 228.848 229.71 217.784 229.71C206.72 229.71 197.72 229.65 197.72 229.572C197.72 229.494 206.72 229.428 217.784 229.428C228.848 229.428 237.848 229.494 237.848 229.572Z" fill="#455A64"/>
<path d="M231.602 241.128C231.602 241.212 225.548 241.272 218.084 241.272C210.62 241.272 204.566 241.212 204.566 241.128C204.566 241.044 210.62 240.99 218.084 240.99C225.548 240.99 231.602 241.05 231.602 241.128Z" fill="#455A64"/>
<path d="M231.362 242.784C231.362 242.862 225.416 242.928 218.078 242.928C210.74 242.928 204.8 242.862 204.8 242.784C204.8 242.706 210.746 242.64 218.078 242.64C225.41 242.64 231.362 242.706 231.362 242.784Z" fill="#455A64"/>
<path d="M231.836 239.766C231.836 239.844 225.572 239.91 217.85 239.91C210.128 239.91 203.87 239.844 203.87 239.766C203.87 239.688 210.128 239.628 217.85 239.628C225.572 239.628 231.836 239.688 231.836 239.766Z" fill="#455A64"/>
<path d="M42.1041 225.78L25.8441 239.118L42.3321 259.434C44.1741 257.742 39.5421 244.068 39.5421 244.068L50.3121 235.95L42.1041 225.78Z" fill="#455A64"/>
<path d="M35.3241 237.066C35.1056 236.919 34.8406 236.857 34.5795 236.892C34.3184 236.928 34.0794 237.058 33.9081 237.258C33.7541 237.472 33.6876 237.736 33.7222 237.997C33.7568 238.258 33.8898 238.496 34.0941 238.662C34.3258 238.817 34.6066 238.881 34.8825 238.841C35.1584 238.801 35.4097 238.66 35.5881 238.446C35.7252 238.207 35.7649 237.925 35.6989 237.658C35.633 237.391 35.4664 237.159 35.2341 237.012" fill="white"/>
<path d="M25.9041 239.058L27.5421 237.702L42.6501 257.844C42.6501 257.844 42.9861 259.044 42.2601 259.482L25.9041 239.058Z" fill="white"/>
<path d="M39.9141 244.308C39.8121 244.386 39.3621 243.924 38.6481 243.708C37.9341 243.492 37.3041 243.558 37.2681 243.432C37.2321 243.306 37.9281 242.994 38.7861 243.288C39.6441 243.582 40.0221 244.254 39.9141 244.308Z" fill="#263238"/>
<path d="M40.7601 247.152C40.6821 247.254 40.1601 246.96 39.4701 246.966C38.7801 246.972 38.2701 247.23 38.1801 247.128C38.0901 247.026 38.6121 246.528 39.4761 246.528C40.3401 246.528 40.8561 247.074 40.7601 247.152Z" fill="#263238"/>
<path d="M39.1941 250.434C39.0981 250.362 39.4821 249.834 40.2321 249.636C40.9821 249.438 41.5761 249.738 41.5281 249.846C41.4801 249.954 40.9281 249.9 40.3281 250.062C39.7281 250.224 39.2841 250.524 39.1941 250.434Z" fill="#263238"/>
<path d="M42.1641 242.184C42.0381 242.214 41.8041 241.65 41.3121 241.122C40.8201 240.594 40.2861 240.294 40.3281 240.174C40.3701 240.054 41.0661 240.174 41.6421 240.822C42.2181 241.47 42.2781 242.172 42.1641 242.184Z" fill="#263238"/>
<path d="M44.1801 239.742C44.1381 239.778 43.7601 239.436 43.3581 238.722C42.9938 238.049 42.7559 237.315 42.6561 236.556C42.6315 236.389 42.6315 236.219 42.6561 236.052C42.6727 235.93 42.7295 235.817 42.8176 235.731C42.9056 235.646 43.0198 235.592 43.1421 235.578C43.2548 235.57 43.3679 235.589 43.4722 235.632C43.5764 235.676 43.6689 235.744 43.7421 235.83C43.8458 235.961 43.9324 236.104 44.0001 236.256C44.1208 236.517 44.2191 236.788 44.2941 237.066C44.4193 237.533 44.4679 238.017 44.4381 238.5C44.4579 238.948 44.3407 239.392 44.1021 239.772C44.0301 239.772 44.1561 239.274 44.1021 238.5C44.0849 238.052 44.0103 237.609 43.8801 237.18C43.8013 236.929 43.703 236.684 43.5861 236.448C43.4661 236.184 43.3161 236.004 43.1781 236.022C43.0401 236.04 43.1061 236.022 43.0821 236.136C43.0673 236.26 43.0673 236.384 43.0821 236.508C43.1124 236.772 43.1565 237.034 43.2141 237.294C43.3143 237.736 43.4549 238.168 43.6341 238.584C43.8429 238.957 44.0254 239.344 44.1801 239.742Z" fill="#263238"/>
<path d="M43.9341 239.73C43.8861 239.73 44.0841 239.22 44.6961 238.662C45.0598 238.34 45.4758 238.082 45.9261 237.9C46.1938 237.792 46.471 237.71 46.7541 237.654C46.9326 237.601 47.1219 237.594 47.3037 237.635C47.4855 237.676 47.6537 237.763 47.7921 237.888C47.8645 237.979 47.9088 238.09 47.9195 238.206C47.9301 238.322 47.9067 238.439 47.8521 238.542C47.7768 238.691 47.6797 238.829 47.5641 238.95C47.3667 239.171 47.1359 239.359 46.8801 239.508C46.4534 239.761 45.9713 239.905 45.4761 239.928C45.2522 239.962 45.0239 239.95 44.8045 239.895C44.585 239.839 44.3789 239.74 44.1981 239.604C44.6138 239.627 45.0304 239.627 45.4461 239.604C45.8736 239.538 46.2825 239.382 46.6461 239.148C46.8684 239.011 47.0704 238.843 47.2461 238.65C47.4321 238.446 47.5401 238.224 47.4561 238.158C47.3675 238.103 47.2684 238.067 47.165 238.052C47.0616 238.038 46.9564 238.045 46.8561 238.074C46.5985 238.116 46.3454 238.183 46.1001 238.272C45.6734 238.413 45.2693 238.616 44.9001 238.872C44.2761 239.364 43.9941 239.772 43.9341 239.73Z" fill="#263238"/>
<path d="M34.7361 236.67L34.9341 257.7L61.1001 257.586C60.9381 255.09 47.3781 250.128 47.3781 250.128L47.8041 236.646L34.7361 236.67Z" fill="#455A64"/>
<path d="M39.2781 249.03C39.0315 249.108 38.8214 249.272 38.6868 249.493C38.5522 249.713 38.5022 249.975 38.5461 250.23C38.6141 250.483 38.7763 250.7 38.9994 250.838C39.2225 250.975 39.4896 251.021 39.7461 250.968C40.0133 250.886 40.2402 250.707 40.3822 250.466C40.5243 250.225 40.5713 249.94 40.5141 249.666C40.4154 249.409 40.2211 249.199 39.9717 249.082C39.7224 248.965 39.4373 248.948 39.1761 249.036" fill="white"/>
<path d="M34.9281 257.616V255.492L60.1281 256.344C60.1281 256.344 61.2921 256.854 61.1541 257.676L34.9281 257.616Z" fill="white"/>
<path d="M47.7981 249.996C47.7981 250.122 47.1561 250.182 46.5321 250.596C45.9081 251.01 45.5721 251.55 45.4521 251.496C45.3321 251.442 45.5241 250.71 46.2921 250.224C47.0601 249.738 47.8281 249.876 47.7981 249.996Z" fill="#263238"/>
<path d="M50.5521 251.118C50.5521 251.238 50.0241 251.46 49.5981 252C49.1721 252.54 49.0401 253.116 48.9141 253.11C48.7881 253.104 48.7041 252.384 49.2501 251.718C49.7961 251.052 50.5461 250.98 50.5521 251.118Z" fill="#263238"/>
<path d="M52.1241 254.394C52.0041 254.424 51.8241 253.794 52.1241 253.086C52.4241 252.378 53.0481 252.102 53.1021 252.21C53.1561 252.318 52.7901 252.69 52.5021 253.272C52.2141 253.854 52.2501 254.382 52.1241 254.394Z" fill="#263238"/>
<path d="M47.5581 246.912C47.5041 247.026 46.9161 246.852 46.1961 246.912C45.4761 246.972 44.9121 247.194 44.8461 247.086C44.7801 246.978 45.3141 246.516 46.1661 246.486C47.0181 246.456 47.6181 246.81 47.5581 246.912Z" fill="#263238"/>
<path d="M46.9221 243.81C46.492 243.928 46.0381 243.928 45.6081 243.81C45.1348 243.726 44.6734 243.585 44.2341 243.39C43.9751 243.276 43.7245 243.143 43.4841 242.994C43.3349 242.916 43.2008 242.813 43.0881 242.688C43.0028 242.599 42.95 242.483 42.938 242.36C42.926 242.238 42.9556 242.114 43.0221 242.01C43.086 241.921 43.1697 241.848 43.2665 241.797C43.3633 241.746 43.4707 241.719 43.5801 241.716C43.7464 241.713 43.9123 241.735 44.0721 241.782C44.353 241.845 44.6266 241.937 44.8881 242.058C45.3279 242.254 45.7331 242.519 46.0881 242.844C46.6881 243.408 46.9101 243.882 46.8681 243.906C46.8261 243.93 46.5081 243.552 45.8901 243.09C45.5208 242.82 45.1172 242.6 44.6901 242.436C44.446 242.336 44.1928 242.26 43.9341 242.208C43.6581 242.136 43.4241 242.136 43.3341 242.256C43.2441 242.376 43.3341 242.322 43.3641 242.406C43.4521 242.492 43.5509 242.567 43.6581 242.628C43.8788 242.774 44.1093 242.904 44.3481 243.018C44.755 243.22 45.1811 243.381 45.6201 243.498C46.0612 243.57 46.4964 243.674 46.9221 243.81Z" fill="#263238"/>
<path d="M46.7541 243.99C46.505 243.619 46.3829 243.177 46.4061 242.73C46.379 242.244 46.4358 241.757 46.5741 241.29C46.6619 241.017 46.7723 240.752 46.9041 240.498C46.9745 240.325 47.0881 240.173 47.2341 240.056C47.3802 239.94 47.5537 239.862 47.7381 239.832C47.8552 239.832 47.9698 239.865 48.0679 239.929C48.166 239.993 48.2432 240.085 48.2901 240.192C48.3542 240.346 48.4005 240.507 48.4281 240.672C48.4731 240.964 48.4731 241.262 48.4281 241.554C48.3589 242.045 48.1692 242.51 47.8761 242.91C47.3661 243.594 46.8321 243.75 46.8261 243.702C46.8201 243.654 47.2281 243.39 47.6121 242.736C47.8382 242.361 47.9795 241.941 48.0261 241.506C48.051 241.264 48.0429 241.02 48.0021 240.78C47.9601 240.498 47.8521 240.276 47.7501 240.306C47.6481 240.336 47.4021 240.516 47.2941 240.738C47.1664 240.964 47.058 241.201 46.9701 241.446C46.8272 241.87 46.7444 242.313 46.7241 242.76C46.6881 243.498 46.8021 243.972 46.7541 243.99Z" fill="#263238"/>
<path d="M36.9801 114.84C36.9801 114.84 33.3081 118.764 31.5081 122.532C29.7081 126.3 28.5561 135.27 28.5561 135.27C28.5561 135.27 23.4921 146.55 24.2601 152.322C25.0281 158.094 30.1881 197.58 30.1881 197.58C30.1881 197.58 29.9361 235.92 33.6021 242.76L34.4181 246.456L49.1721 243.834L49.0761 241.62L52.5441 166.38L61.4241 115.17L36.9801 114.84Z" fill="#263238"/>
<path d="M69.5301 126.03C69.5301 126.03 78.3501 174.582 79.1301 183.03C79.9101 191.478 49.8861 235.896 49.8861 235.896L36.1581 221.58L55.8621 184.98L49.4541 148.068L58.3641 115.458L67.7241 115.782L69.5301 126.03Z" fill="#263238"/>
<path d="M31.2981 230.82C31.3137 231.178 31.3498 231.534 31.4061 231.888C31.4961 232.596 31.6701 233.628 31.9101 234.966C32.4021 237.636 33.2001 241.512 34.2681 246.366V246.468H34.3701L49.1301 243.882H49.2441V243.768C49.6581 233.646 50.1441 221.568 50.6721 208.566C51.2181 194.604 51.7221 181.656 52.1361 171.036C53.2401 162.504 54.1581 155.436 54.7941 150.51C55.1061 148.056 55.3461 146.13 55.5141 144.798L55.6941 143.304C55.7301 142.962 55.7421 142.788 55.7421 142.788C55.7421 142.788 55.7001 142.956 55.6521 143.298C55.6041 143.64 55.5261 144.144 55.4301 144.792C55.2501 146.118 54.9801 148.038 54.6381 150.486C53.9721 155.418 53.0181 162.486 51.8601 171C51.4281 181.62 50.9061 194.568 50.3361 208.53C49.8321 221.508 49.3581 233.61 48.9621 243.738L49.0821 243.6L34.3341 246.252L34.4601 246.336C33.3621 241.536 32.5341 237.636 32.0061 234.972C31.7481 233.64 31.5561 232.614 31.4481 231.912C31.3821 231.564 31.3521 231.312 31.3281 231.12C31.3244 231.019 31.3143 230.919 31.2981 230.82Z" fill="#455A64"/>
<path d="M57.7281 32.94C58.1661 30.366 56.2041 27.774 53.7141 26.994C51.2241 26.214 48.4341 26.994 46.2921 28.47C44.7021 29.58 43.3821 31.074 41.6961 32.04C40.1601 32.916 38.3841 33.318 36.8961 34.23C35.7139 34.9558 34.7308 35.9643 34.0353 37.1646C33.3398 38.3649 32.9538 39.7194 32.9121 41.106C32.8761 43.026 33.5121 45.072 32.6301 46.788C31.6941 48.66 29.3361 49.428 28.2681 51.228C27.3021 52.854 27.6201 54.918 28.0821 56.754C28.5441 58.59 29.1201 60.528 28.5861 62.346C28.0941 63.996 26.7861 65.262 26.0181 66.822C25.3317 68.3965 25.2464 70.1679 25.7782 71.801C26.3101 73.4342 27.4222 74.8157 28.9041 75.684L44.7501 69.252L57.7281 32.94Z" fill="#263238"/>
<path d="M57.9141 31.926C60.3561 31.692 62.5701 33.63 63.5181 35.892C64.4661 38.154 64.4361 40.692 64.4721 43.14C64.5081 45.588 64.6521 48.15 65.8701 50.274C66.5121 51.39 67.4241 52.326 68.1621 53.382C68.973 54.4007 69.3809 55.682 69.3081 56.982C69.0141 59.304 66.4641 60.732 65.8221 62.982C65.3001 64.782 66.1401 66.786 65.7201 68.634C65.325 70.0576 64.391 71.2714 63.1161 72.018C61.8511 72.7487 60.4869 73.2924 59.0661 73.632L51.1161 67.482L53.0481 31.428L57.9141 31.926Z" fill="#263238"/>
<path d="M40.4541 44.178L41.4021 69.78C41.4405 70.8109 41.6879 71.8232 42.1295 72.7555C42.571 73.6878 43.1974 74.5207 43.9706 75.2036C44.7438 75.8864 45.6477 76.4051 46.6275 76.728C47.6072 77.0509 48.6424 77.1713 49.6701 77.082C51.5857 76.9151 53.3602 76.0059 54.6146 74.5485C55.8691 73.0912 56.5041 71.2011 56.3841 69.282C56.3121 67.362 56.3541 65.082 56.3841 64.884C56.3841 64.884 62.7921 63.444 63.0201 56.982C63.1341 53.856 63.0621 48.582 62.7261 42.774C62.5632 39.739 61.2586 36.8778 59.0741 34.7646C56.8896 32.6513 53.9868 31.4423 50.9481 31.38H50.3481C43.5921 31.602 40.0281 37.452 40.4541 44.178Z" fill="#FFBE9D"/>
<path d="M56.4021 64.866C53.4066 64.8566 50.482 63.9542 48.0021 62.274C48.0021 62.274 49.8861 66.972 56.3481 66.54L56.4021 64.866Z" fill="#EB996E"/>
<path d="M61.1481 48.462C61.1435 48.7024 61.0459 48.9317 60.8758 49.1018C60.7058 49.2718 60.4765 49.3694 60.2361 49.374C60.1183 49.3805 60.0004 49.3632 59.8893 49.3233C59.7783 49.2834 59.6764 49.2216 59.5897 49.1416C59.503 49.0616 59.4332 48.965 59.3845 48.8575C59.3358 48.7501 59.3091 48.6339 59.3061 48.516C59.3092 48.2757 59.4065 48.0461 59.577 47.8767C59.7475 47.7073 59.9777 47.6116 60.2181 47.61C60.3354 47.6035 60.4528 47.6206 60.5634 47.6601C60.6741 47.6997 60.7757 47.761 60.8623 47.8403C60.949 47.9197 61.0189 48.0156 61.0679 48.1223C61.117 48.2291 61.1442 48.3446 61.1481 48.462Z" fill="#263238"/>
<path d="M61.2801 46.284C61.1601 46.404 60.4761 45.87 59.4801 45.846C58.4841 45.822 57.7461 46.308 57.6441 46.182C57.5421 46.056 57.7161 45.912 58.0341 45.69C58.4709 45.401 58.9865 45.2543 59.5101 45.27C60.0268 45.2807 60.5268 45.4551 60.9381 45.768C61.2381 46.014 61.3401 46.23 61.2801 46.284Z" fill="#263238"/>
<path d="M51.7281 48.462C51.7234 48.7024 51.6259 48.9317 51.4558 49.1018C51.2858 49.2718 51.0565 49.3694 50.8161 49.374C50.6983 49.3805 50.5803 49.3632 50.4693 49.3233C50.3583 49.2834 50.2564 49.2216 50.1697 49.1416C50.083 49.0616 50.0132 48.965 49.9645 48.8575C49.9158 48.7501 49.8891 48.6339 49.8861 48.516C49.8892 48.2756 49.9865 48.0461 50.157 47.8767C50.3275 47.7073 50.5577 47.6115 50.7981 47.61C50.9156 47.6027 51.0333 47.6192 51.1443 47.6584C51.2553 47.6976 51.3573 47.7589 51.4441 47.8384C51.5309 47.9179 51.6008 48.0141 51.6496 48.1213C51.6984 48.2284 51.7251 48.3443 51.7281 48.462Z" fill="#263238"/>
<path d="M51.7821 46.422C51.6621 46.542 50.9781 46.008 49.9821 45.99C48.9861 45.972 48.2481 46.446 48.1461 46.32C48.0441 46.194 48.2121 46.056 48.5361 45.828C48.9736 45.5412 49.4892 45.3966 50.0121 45.414C50.5288 45.4247 51.0288 45.5991 51.4401 45.912C51.7401 46.152 51.8361 46.38 51.7821 46.422Z" fill="#263238"/>
<path d="M54.8961 53.274C55.4245 53.1275 55.9681 53.0429 56.5161 53.022C56.7741 53.022 57.0141 52.956 57.0621 52.788C57.0884 52.526 57.034 52.2622 56.9061 52.032C56.6841 51.432 56.4501 50.76 56.2041 50.082C55.2261 47.304 54.5241 45.03 54.6381 44.988C54.7521 44.946 55.6341 47.166 56.6121 49.944C56.8461 50.628 57.0681 51.282 57.2841 51.9C57.4365 52.211 57.4747 52.5657 57.3921 52.902C57.3523 52.9899 57.2935 53.0679 57.2198 53.1302C57.1461 53.1925 57.0594 53.2375 56.9661 53.262C56.8253 53.2998 56.6797 53.316 56.5341 53.31C55.989 53.373 55.4378 53.3608 54.8961 53.274Z" fill="#263238"/>
<path d="M51.4761 42.528C51.3621 42.792 50.3781 42.612 49.2081 42.696C48.0381 42.78 47.0781 43.044 46.9341 42.798C46.8741 42.678 47.0481 42.432 47.4441 42.198C47.9774 41.8523 48.6107 41.694 49.2441 41.748C49.8079 41.6915 50.377 41.7761 50.9001 41.994C51.3201 42.18 51.5241 42.402 51.4761 42.528Z" fill="#263238"/>
<path d="M61.6701 42.486C61.4661 42.714 60.6681 42.486 59.7021 42.444C58.7361 42.402 57.9021 42.576 57.7401 42.342C57.6561 42.228 57.7881 42 58.1481 41.79C58.6422 41.5369 59.193 41.4151 59.7477 41.4361C60.3025 41.4571 60.8425 41.6203 61.3161 41.91C61.6521 42.144 61.7601 42.378 61.6701 42.486Z" fill="#263238"/>
<path d="M55.2021 56.454C55.1634 56.2452 55.0947 56.0431 54.9981 55.854C54.8802 55.6547 54.7151 55.4875 54.5173 55.3672C54.3196 55.2469 54.0952 55.1771 53.8641 55.164C53.3978 55.1434 52.9417 55.3047 52.5921 55.614C52.439 55.7473 52.3156 55.9113 52.2298 56.0952C52.1441 56.2792 52.0978 56.4791 52.0941 56.682C52.0986 56.7902 52.1252 56.8964 52.1721 56.994C52.2898 57.2716 52.4721 57.5171 52.7037 57.7102C52.9354 57.9032 53.2098 58.0382 53.5041 58.104C53.8004 58.1613 54.107 58.1318 54.387 58.019C54.6669 57.9061 54.9083 57.7148 55.0821 57.468C55.1821 57.3254 55.2459 57.1607 55.2681 56.988C55.2729 56.8077 55.2507 56.6277 55.2021 56.454Z" fill="#EB996E"/>
<path d="M41.4561 52.806C41.4201 52.806 41.3721 52.806 41.3781 52.872C41.3805 52.8818 41.3851 52.891 41.3917 52.8987C41.3982 52.9065 41.4064 52.9126 41.4157 52.9167C41.425 52.9208 41.4351 52.9226 41.4452 52.9222C41.4553 52.9217 41.4652 52.9189 41.4741 52.914C41.4817 52.9072 41.4879 52.8989 41.4921 52.8896C41.4963 52.8803 41.4984 52.8702 41.4984 52.86C41.4984 52.8498 41.4963 52.8397 41.4921 52.8304C41.4879 52.8211 41.4817 52.8128 41.4741 52.806C41.4657 52.8018 41.4564 52.7996 41.4471 52.7996C41.4377 52.7996 41.4284 52.8018 41.4201 52.806" fill="#263238"/>
<path d="M41.5521 52.53C41.5423 52.5268 41.5319 52.5262 41.5219 52.5281C41.5118 52.5301 41.5024 52.5346 41.4946 52.5412C41.4868 52.5478 41.4808 52.5563 41.4772 52.5659C41.4736 52.5755 41.4725 52.5859 41.4741 52.596C41.4756 52.6057 41.4795 52.6148 41.4854 52.6226C41.4913 52.6305 41.499 52.6367 41.5079 52.6409C41.5168 52.645 41.5266 52.6469 41.5364 52.6464C41.5461 52.6459 41.5556 52.643 41.5641 52.638C41.5727 52.6319 41.5798 52.6238 41.5847 52.6144C41.5896 52.605 41.5921 52.5946 41.5921 52.584C41.5921 52.5734 41.5896 52.563 41.5847 52.5536C41.5798 52.5442 41.5727 52.5361 41.5641 52.53C41.5559 52.5253 41.5465 52.5228 41.5371 52.5228C41.5276 52.5228 41.5183 52.5253 41.5101 52.53" fill="#263238"/>
<path d="M56.0601 56.898C56.0601 56.97 55.8081 57.114 55.3341 57.186C54.6926 57.2878 54.0354 57.1915 53.4501 56.91C52.8578 56.6216 52.3847 56.1357 52.1121 55.536C51.9081 55.092 51.9021 54.786 51.9741 54.756C52.1541 54.672 52.5741 55.788 53.7261 56.352C54.2278 56.5789 54.7665 56.7131 55.3161 56.748C55.7601 56.79 56.0481 56.802 56.0601 56.898Z" fill="#263238"/>
<path d="M38.0241 49.782C36.5481 44.568 37.2981 38.604 40.6281 34.326C43.9581 30.048 49.9941 27.846 55.1181 29.61C55.8542 29.8309 56.5282 30.2213 57.0861 30.75C57.3576 31.0206 57.5554 31.3562 57.6604 31.7248C57.7654 32.0935 57.7743 32.4829 57.6861 32.856C57.3381 34.014 55.9461 34.47 54.7401 34.524C53.5341 34.578 52.2441 34.428 51.2061 35.04C49.3701 36.114 49.4061 38.814 48.1101 40.494C47.4681 41.322 46.5141 41.88 45.9321 42.75C44.3601 45.102 45.6561 46.512 44.6541 49.158C44.3721 49.89 43.1001 50.562 42.3201 50.67C41.5401 50.778 42.1641 50.766 40.5201 50.58L38.0241 49.782Z" fill="#263238"/>
<path d="M42.7281 50.67C42.6201 50.616 38.3901 49.134 38.3001 53.526C38.2101 57.918 42.6381 57.126 42.6501 56.976C42.6621 56.826 42.7281 50.67 42.7281 50.67Z" fill="#FFBE9D"/>
<path d="M41.3421 55.284C41.3421 55.284 41.2641 55.338 41.1321 55.392C41.038 55.4355 40.9357 55.4581 40.8321 55.4581C40.7285 55.4581 40.6261 55.4355 40.5321 55.392C40.0701 55.218 39.6981 54.468 39.6921 53.676C39.6858 53.3008 39.7659 52.9293 39.9261 52.59C39.9685 52.4481 40.0456 52.319 40.1503 52.2143C40.2551 52.1095 40.3842 52.0325 40.5261 51.99C40.6145 51.9689 40.7074 51.9788 40.7894 52.0182C40.8713 52.0575 40.9372 52.1238 40.9761 52.206C41.0301 52.332 40.9761 52.416 41.0241 52.428C41.0721 52.44 41.1201 52.356 41.0901 52.17C41.0667 52.0617 41.0075 51.9645 40.9221 51.894C40.8021 51.8026 40.6522 51.7598 40.5021 51.774C40.3205 51.8061 40.1502 51.8842 40.0074 52.0008C39.8645 52.1174 39.7539 52.2686 39.6861 52.44C39.4942 52.8107 39.3953 53.2226 39.3981 53.64C39.3981 54.522 39.8421 55.362 40.4721 55.56C40.5895 55.5948 40.7131 55.6037 40.8343 55.5861C40.9555 55.5685 41.0714 55.5248 41.1741 55.458C41.3301 55.38 41.3541 55.296 41.3421 55.284Z" fill="#EB996E"/>
<path d="M33.0321 42.09C33.9727 42.4962 34.9787 42.7299 36.0021 42.78C37.1051 42.8011 38.2034 42.6305 39.2481 42.276C40.5264 41.8236 41.7374 41.1999 42.8481 40.422C44.0481 39.612 45.1161 38.742 46.1061 37.962C47.0961 37.182 47.9961 36.486 48.7941 35.958C49.4195 35.5309 50.0753 35.1499 50.7561 34.818C51 34.6836 51.2601 34.5807 51.5301 34.512C51.5301 34.512 51.2721 34.662 50.8101 34.926C50.159 35.2919 49.5281 35.6924 48.9201 36.126C48.1461 36.672 47.2581 37.374 46.2861 38.172C45.3141 38.97 44.2341 39.852 43.0221 40.674C41.8878 41.4644 40.6475 42.0906 39.3381 42.534C38.2607 42.8863 37.1284 43.0408 35.9961 42.99C35.2323 42.9518 34.4802 42.7876 33.7701 42.504C33.5795 42.4257 33.395 42.3334 33.2181 42.228C33.0941 42.148 33.0321 42.102 33.0321 42.09Z" fill="#455A64"/>
<path d="M32.6901 42.504C32.6901 42.462 33.2901 42.828 34.3401 43.302C35.6713 43.9197 37.0682 44.3847 38.5041 44.688C39.9423 44.9849 41.4099 45.1157 42.8781 45.078C44.0061 45.078 44.6781 44.958 44.7081 45.012C44.555 45.076 44.3932 45.1164 44.2281 45.132C43.7861 45.2163 43.3392 45.2724 42.8901 45.3C39.8976 45.5032 36.9068 44.8805 34.2441 43.5C33.8413 43.2958 33.4525 43.0653 33.0801 42.81C32.8161 42.63 32.6781 42.522 32.6901 42.504Z" fill="#455A64"/>
<path d="M64.3521 39.858C63.6043 39.7285 62.9046 39.4016 62.3255 38.9111C61.7464 38.4206 61.3088 37.7843 61.0581 37.068C61.5171 37.6315 62.0079 38.1684 62.5281 38.676C63.1129 39.1047 63.7219 39.4993 64.3521 39.858Z" fill="#455A64"/>
<path d="M64.2021 44.118C64.2501 44.184 64.0161 44.442 63.6021 44.58C63.1881 44.718 62.8521 44.658 62.8521 44.58C62.8521 44.502 63.1521 44.412 63.5001 44.292C63.8481 44.172 64.1241 44.046 64.2021 44.118Z" fill="#455A64"/>
<path d="M88.7121 97.38C88.6744 96.0327 89.0378 94.7045 89.7561 93.564C90.9081 92.004 93.3561 91.29 93.5541 90.204C93.7521 89.118 95.6301 86.94 96.5541 87.444C97.4781 87.948 97.8561 89.124 96.5541 90.48C95.6989 91.3711 94.9202 92.3325 94.2261 93.354C94.2261 93.354 105.89 91.332 106.742 91.482C107.594 91.632 108.446 91.776 108.452 92.496C108.458 93.216 106.19 93.414 106.19 93.414L102.392 96.054C101.519 97.2448 100.488 98.3106 99.3261 99.222C98.0273 100.018 96.5761 100.533 95.0661 100.734L91.0281 103.314C91.0281 103.314 87.0441 100.416 88.7121 97.38Z" fill="#FFBE9D"/>
<path d="M105.932 93.522C105.932 93.522 105.86 93.432 105.728 93.312C105.538 93.1383 105.299 93.0273 105.044 92.994C104.175 92.9773 103.321 93.231 102.602 93.72C101.86 94.205 101.178 94.7749 100.568 95.418C100.329 95.7051 100.055 95.9611 99.7521 96.18C99.9354 95.8517 100.161 95.5491 100.424 95.28C101.001 94.5767 101.685 93.9692 102.452 93.48C103.222 92.9487 104.155 92.7084 105.086 92.802C105.374 92.8565 105.634 93.0118 105.818 93.24C105.932 93.402 105.944 93.516 105.932 93.522Z" fill="#EB996E"/>
<path d="M101.846 93.66C100.707 94.106 99.5036 94.3654 98.2821 94.428C99.4233 93.9895 100.626 93.7304 101.846 93.66Z" fill="#EB996E"/>
<path d="M95.8281 94.218C96.4314 94.1985 97.024 94.381 97.512 94.7364C98 95.0917 98.3554 95.5998 98.522 96.18C98.1579 95.7457 97.7564 95.3441 97.322 94.98C96.8488 94.6801 96.3487 94.4249 95.8281 94.218Z" fill="#EB996E"/>
<path d="M66.2121 71.532C66.2121 71.532 71.9421 74.448 73.3341 78.288C74.0661 80.31 78.3981 101.802 78.3981 101.802L87.1221 95.88L93.0021 104.76L79.0521 115.62C76.3255 116.317 73.4462 116.106 70.8501 115.02C69.9021 114.618 69.1401 114.15 68.9541 113.652C68.4021 112.11 66.2121 71.532 66.2121 71.532Z" fill="#FF725E"/>
<path d="M74.702 105.354C73.748 106.794 73.298 108.69 73.97 110.286C74.0193 110.435 74.111 110.566 74.234 110.664C74.3843 110.737 74.5567 110.748 74.7154 110.697C74.8741 110.645 75.0069 110.535 75.0861 110.388C75.2297 110.085 75.2996 109.752 75.29 109.416C75.4563 106.612 76.5641 103.946 78.4341 101.85V101.766C76.9989 102.746 75.7375 103.958 74.702 105.354Z" fill="black"/>
<path d="M25.7241 74.394L42.2781 69.024C45.4941 77.574 55.8501 76.116 56.3781 69.234L66.2121 71.58C66.2121 71.58 69.5061 92.454 68.7081 96.78C67.4241 103.752 70.6461 126.402 72.3501 134.55C73.8321 141.606 69.5061 145.8 67.3341 147.72C56.2821 157.488 50.5341 156.174 42.4521 151.098C36.7648 147.672 30.7927 144.743 24.6021 142.344C25.4061 132.894 30.6441 123.09 34.0101 115.998L32.4621 99.516L25.7241 74.394Z" fill="#FF725E"/>
<path d="M72.0621 132.102C71.9997 131.945 71.9515 131.782 71.9181 131.616C71.8401 131.298 71.7201 130.83 71.5821 130.218C71.3001 129.018 70.9281 127.218 70.5501 125.022C70.1721 122.826 69.8001 120.174 69.5181 117.222C69.2361 114.27 69.0801 111.024 69.0321 107.622C68.9841 104.22 68.9361 100.962 68.7081 98.022C68.5432 95.4138 68.1781 92.8222 67.6161 90.27C67.237 88.5503 66.7173 86.8646 66.0621 85.23C65.8461 84.63 65.6181 84.216 65.4981 83.91C65.4243 83.759 65.3621 83.6025 65.3121 83.442C65.408 83.5818 65.4904 83.7305 65.5581 83.886C65.6961 84.18 65.9421 84.606 66.1581 85.188C66.8578 86.8137 67.412 88.4983 67.8141 90.222C68.4159 92.7723 68.8131 95.3665 69.0021 97.98C69.2421 100.932 69.3021 104.19 69.3501 107.58C69.3981 110.97 69.5541 114.234 69.8121 117.18C70.0701 120.126 70.4121 122.754 70.7721 124.98C71.1321 127.206 71.4621 128.958 71.7081 130.188C71.8281 130.788 71.9181 131.25 71.9901 131.598C72.0246 131.764 72.0486 131.933 72.0621 132.102Z" fill="#263238"/>
<path d="M49.6881 119.118C46.2081 118.95 42.6201 118.8 39.3621 120.012C34.3941 121.854 31.0641 126.48 26.7021 129.492L27.1161 129.642C29.1247 130.755 31.4096 131.27 33.7014 131.128C35.9932 130.985 38.1966 130.191 40.0521 128.838C41.8521 127.476 43.3041 125.568 45.4161 124.764C46.3341 124.41 47.3481 124.284 48.2001 123.786C48.9638 123.313 49.5335 122.583 49.8063 121.727C50.0792 120.871 50.0372 119.946 49.6881 119.118Z" fill="black"/>
<path d="M25.7241 74.448C23.8386 75.5313 22.3625 77.2056 21.5241 79.212C20.3961 81.936 17.3241 118.668 17.8521 121.02C18.3801 123.372 20.8521 126.894 24.9081 128.724C28.3341 130.266 37.1901 126.528 40.7841 125.208C40.8981 125.166 39.9801 123.786 39.5841 122.868L36.5421 113.178L31.6701 113.706L33.4701 95.49L25.7241 74.448Z" fill="#FF725E"/>
<path d="M31.1361 86.796C31.243 87.1295 31.3252 87.4704 31.3821 87.816C31.5141 88.482 31.6701 89.448 31.8261 90.648C32.1381 93.048 32.4261 96.378 32.6961 100.05L33.3621 109.47C33.4581 110.634 33.5421 111.594 33.6021 112.32C33.6544 112.665 33.6785 113.015 33.6741 113.364C33.5835 113.025 33.5193 112.68 33.4821 112.332C33.3801 111.666 33.2661 110.694 33.1401 109.488C32.9001 107.088 32.6541 103.752 32.3841 100.074C32.1141 96.396 31.8621 93.072 31.6041 90.672C31.4781 89.472 31.3581 88.506 31.2621 87.84C31.1905 87.4962 31.1484 87.147 31.1361 86.796Z" fill="#263238"/>
<path d="M37.3161 112.818C36.7964 112.965 36.2671 113.075 35.7321 113.148C34.7301 113.322 33.3321 113.556 31.6521 113.82H31.5681C30.6978 113.428 29.7614 113.204 28.8081 113.16C27.7012 113.109 26.5967 113.303 25.5741 113.73C24.7418 114.084 23.9782 114.582 23.3181 115.2C22.7285 115.796 22.1999 116.449 21.7401 117.15C21.8059 116.938 21.9008 116.736 22.0221 116.55C22.3363 116.007 22.7195 115.507 23.1621 115.062C23.8276 114.402 24.6085 113.869 25.4661 113.49C26.523 113.034 27.6708 112.829 28.8201 112.89C29.8145 112.935 30.7907 113.174 31.6941 113.592H31.6101C33.2721 113.352 34.6941 113.16 35.7081 113.034C36.2373 112.918 36.7751 112.846 37.3161 112.818Z" fill="#263238"/>
<path d="M39.7101 122.898C39.8583 123.081 39.9813 123.283 40.0761 123.498L40.9941 125.142L41.0541 125.244L40.9401 125.292C39.2841 125.934 36.8421 126.852 34.1181 127.854L31.7601 128.718L31.6761 128.43L31.7541 128.718H31.6941L31.6221 128.424H31.6521L31.7361 128.712C30.0711 129.274 28.2963 129.433 26.5581 129.174C26.0595 129.098 25.5665 128.99 25.0821 128.85C24.9028 128.807 24.7295 128.743 24.5661 128.658C24.5661 128.61 25.3161 128.838 26.5821 128.982C28.2886 129.177 30.0172 128.987 31.6401 128.424L31.7241 128.712L31.6521 128.418H31.7061L31.7841 128.706L31.6941 128.412L34.0461 127.542C36.7701 126.54 39.2241 125.658 40.9041 125.076L40.8441 125.22L40.0101 123.534C39.8883 123.333 39.7877 123.12 39.7101 122.898Z" fill="#263238"/>
<path d="M78.5361 101.7C77.9345 102.399 77.3736 103.132 76.8561 103.896C76.0881 105.204 75.7941 106.434 75.6921 106.404C75.7613 105.453 76.0688 104.535 76.5861 103.734C77.0321 102.886 77.7079 102.181 78.5361 101.7Z" fill="#263238"/>
<path d="M58.2741 34.884C58.2788 34.9259 58.2788 34.968 58.2741 35.01V34.884Z" fill="#263238"/>
<path d="M46.3461 121.176C45.9391 120.204 45.6899 119.173 45.6081 118.122C45.413 117.087 45.3866 116.027 45.5301 114.984C45.7395 116.004 45.8838 117.036 45.9621 118.074C46.2021 119.778 46.4481 121.152 46.3461 121.176Z" fill="#455A64"/>
<path d="M40.5561 56.97L25.8321 72.078C26.7851 73.6625 27.3119 75.4666 27.3613 77.3149C27.4107 79.1632 26.9811 80.9929 26.1141 82.626L38.4081 83.022L38.4801 79.71C38.6863 80.4006 39.0632 81.0282 39.576 81.5347C40.0888 82.0412 40.7209 82.4103 41.4141 82.608C43.2801 83.142 45.2721 82.644 47.1441 82.122C44.0104 74.012 41.8005 65.5748 40.5561 56.97Z" fill="#263238"/>
<path d="M43.8501 88.626C43.8501 89.07 43.7661 115.986 43.7661 115.986L66.5661 116.748L67.7061 89.52L43.8501 88.626Z" fill="#EBEBEB"/>
<path d="M46.2021 86.616C46.2021 87.168 43.0401 119.382 43.0401 119.382L67.7961 118.782L71.9601 86.604L46.2021 86.616Z" fill="#F5F5F5"/>
<path d="M68.6901 93.114C68.6901 93.204 64.4421 93.27 59.2101 93.27C53.9781 93.27 49.7301 93.204 49.7301 93.114C49.7301 93.024 53.9781 92.958 59.2101 92.958C64.4421 92.958 68.6901 93.03 68.6901 93.114Z" fill="#263238"/>
<path d="M68.4501 95.238C68.4501 95.322 64.2081 95.394 58.9761 95.394C53.7441 95.394 49.4961 95.322 49.4961 95.238C49.4961 95.154 53.7381 95.082 58.9761 95.082C64.2141 95.082 68.4501 95.148 68.4501 95.238Z" fill="#263238"/>
<path d="M68.0301 97.92C68.0301 98.01 63.7821 98.076 58.5501 98.076C53.3181 98.076 49.0701 98.01 49.0701 97.92C49.0701 97.83 53.3181 97.764 58.5501 97.764C63.7821 97.764 68.0301 97.836 68.0301 97.92Z" fill="#263238"/>
<path d="M67.5801 100.326C67.5801 100.41 63.3321 100.482 58.1001 100.482C52.8681 100.482 48.6201 100.41 48.6201 100.326C48.6201 100.242 52.8681 100.164 58.1001 100.164C63.3321 100.164 67.5801 100.236 67.5801 100.326Z" fill="#263238"/>
<path d="M67.5801 102.726C67.5801 102.81 63.3321 102.882 58.1001 102.882C52.8681 102.882 48.6201 102.81 48.6201 102.726C48.6201 102.642 52.8681 102.57 58.1001 102.57C63.3321 102.57 67.5801 102.642 67.5801 102.726Z" fill="#263238"/>
<path d="M67.3521 105.246C67.3521 105.336 63.1101 105.402 57.8721 105.402C52.6341 105.402 48.3981 105.336 48.3981 105.246C48.3981 105.156 52.6401 105.09 57.8721 105.09C63.1041 105.09 67.3521 105.18 67.3521 105.246Z" fill="#263238"/>
<path d="M67.1241 107.766C67.1241 107.856 62.8821 107.928 57.6501 107.928C52.4181 107.928 48.1701 107.856 48.1701 107.766C48.1701 107.676 52.4121 107.61 57.6501 107.61C62.8881 107.61 67.1241 107.682 67.1241 107.766Z" fill="#263238"/>
<path d="M66.8961 110.292C66.8961 110.376 62.6541 110.448 57.4221 110.448C52.1901 110.448 47.9421 110.376 47.9421 110.292C47.9421 110.208 52.1841 110.136 57.4221 110.136C62.6601 110.136 66.8961 110.202 66.8961 110.292Z" fill="#263238"/>
<path d="M66.6741 112.812C66.6741 112.896 62.4261 112.968 57.1941 112.968C51.9621 112.968 47.7141 112.896 47.7141 112.812C47.7141 112.728 51.9621 112.656 57.1941 112.656C62.4261 112.656 66.6741 112.728 66.6741 112.812Z" fill="#263238"/>
<path d="M66.4461 115.332C66.4461 115.422 62.2041 115.488 56.9661 115.488C51.7281 115.488 47.4921 115.422 47.4921 115.332C47.4921 115.242 51.7341 115.176 56.9661 115.176C62.1981 115.176 66.4461 115.248 66.4461 115.332Z" fill="#263238"/>
<path d="M35.8761 115.938C35.8761 115.938 37.8501 111.582 38.2761 111.336C38.7021 111.09 45.7401 110.286 47.1441 110.268C48.6621 110.268 51.0021 110.31 51.3921 111.054C51.6801 111.6 51.3921 112.404 50.2641 112.572C50.2641 112.572 51.8361 112.488 51.6681 113.472C51.5001 114.456 47.9661 116.262 47.9661 116.262C47.9661 116.262 48.6261 117.006 47.3121 118.398L46.7121 119.136C46.7121 119.136 46.9581 120.45 46.2201 121.026C45.4821 121.602 40.8021 123.24 40.8021 123.24L39.0021 122.67L37.8561 123.24C37.8561 123.24 34.1061 119.58 35.8761 115.938Z" fill="#FFBE9D"/>
<path d="M50.8041 112.38C50.3005 112.619 49.7738 112.806 49.2321 112.938C48.2421 113.238 46.8681 113.61 45.3321 113.946C43.7961 114.282 42.3921 114.546 41.3721 114.678C40.8249 114.787 40.268 114.839 39.7101 114.834C40.2399 114.66 40.784 114.534 41.3361 114.456C42.3441 114.258 43.7361 113.982 45.2661 113.64C46.7961 113.298 48.1701 112.968 49.1721 112.728C49.7049 112.565 50.251 112.448 50.8041 112.38Z" fill="#EB996E"/>
<path d="M47.8101 116.394C46.7753 116.936 45.6617 117.313 44.5101 117.51C43.3813 117.806 42.2132 117.924 41.0481 117.858C41.0481 117.768 42.5841 117.612 44.4441 117.204C46.3041 116.796 47.7741 116.31 47.8101 116.394Z" fill="#EB996E"/>
<path d="M46.6461 119.1C46.0318 119.658 45.2902 120.058 44.4861 120.264C43.7118 120.566 42.8763 120.677 42.0501 120.588C42.0501 120.498 43.1301 120.384 44.3901 119.988C45.6501 119.592 46.5981 119.022 46.6461 119.1Z" fill="#EB996E"/>
<path d="M39.6021 120.78C39.6021 120.78 39.2361 120.828 38.7741 120.504C38.5167 120.306 38.3109 120.049 38.1741 119.754C38.0057 119.391 37.9473 118.986 38.0061 118.59C38.0254 118.425 37.9962 118.258 37.9221 118.11C37.8247 117.972 37.7142 117.843 37.5921 117.726C37.3682 117.479 37.2258 117.169 37.1841 116.838C37.1181 116.274 37.3341 115.968 37.3581 115.986C37.3464 116.259 37.3605 116.532 37.4001 116.802C37.4669 117.076 37.6057 117.326 37.8021 117.528C37.9444 117.656 38.0731 117.799 38.1861 117.954C38.296 118.151 38.3421 118.378 38.3181 118.602C38.2642 118.917 38.291 119.241 38.3959 119.543C38.5008 119.845 38.6804 120.116 38.9181 120.33C39.2841 120.678 39.6021 120.738 39.6021 120.78Z" fill="#EB996E"/>
<path d="M40.8021 122.766C40.8021 122.856 40.2801 122.838 39.9081 122.376C39.5361 121.914 39.6321 121.398 39.7161 121.422C39.8001 121.446 39.8541 121.824 40.1541 122.178C40.4541 122.532 40.8021 122.682 40.8021 122.766Z" fill="#EB996E"/>
</svg>
